<svg height="60" viewBox="0 0 399 399.34485" width="60" xmlns="http://www.w3.org/2000/svg"><path d="m364.945312 196.011719h-304.496093l123.316406-165.933594c3.578125 5.378906 9.609375 8.613281 16.070313 8.613281 6.460937 0 12.496093-3.234375 16.074218-8.613281l112.398438 151.238281c1.648437 2.21875 4.777344 2.679688 6.996094 1.03125 2.214843-1.644531 2.679687-4.777344 1.03125-6.996094l-117.359376-157.921874c-.925781-9.878907-9.21875-17.429688-19.140624-17.429688-9.921876 0-18.214844 7.550781-19.140626 17.429688l-132.707031 178.582031h-13.261719c-19.074218.023437-34.53125 15.480469-34.554687 34.558593v134.21875c.023437 19.074219 15.480469 34.535157 34.554687 34.554688 2.761719 0 5-2.238281 5-5s-2.238281-5-5-5c-13.554687-.015625-24.539062-11-24.554687-24.554688v-134.21875c.015625-13.558593 11-24.542968 24.554687-24.558593h330.222657c13.554687.015625 24.539062 11 24.554687 24.558593v134.21875c-.015625 13.554688-11 24.539063-24.554687 24.554688h-302.445313c-2.761718 0-5 2.238281-5 5s2.238282 5 5 5h302.445313c19.074219-.019531 34.53125-15.480469 34.554687-34.554688v-134.21875c-.023437-19.078124-15.480468-34.539062-34.558594-34.558593zm-165.109374-186c5.152343.003906 9.328124 4.183593 9.328124 9.335937s-4.179687 9.328125-9.332031 9.328125c-5.15625 0-9.332031-4.175781-9.332031-9.332031.007812-5.152344 4.183594-9.328125 9.335938-9.332031zm0 0"/><path d="m136.96875 324.726562c5.378906-6.042968 8.140625-13.972656 7.667969-22.050781.480469-8.125-2.296875-16.109375-7.71875-22.183593-5.433594-5.433594-12.90625-8.332032-20.582031-7.980469-4.292969-.082031-8.558594.703125-12.542969 2.304687-2.835938 1.21875-5.398438 3-7.519531 5.242188-2.265626 2.316406-4.101563 5.019531-5.421876 7.976562-1.90625 4.738282-2.8125 9.816406-2.660156 14.921875-.460937 7.996094 2.292969 15.847657 7.644532 21.808594 5.460937 5.421875 12.949218 8.296875 20.636718 7.917969 7.648438.363281 15.09375-2.53125 20.496094-7.957032zm-32.105469-7.203124c-6.042969-9.074219-6.089843-20.875-.117187-30 3.050781-3.171876 7.261718-4.96875 11.664062-4.980469s8.621094 1.765625 11.691406 4.921875c3.246094 4.265625 4.8125 9.578125 4.398438 14.925781.414062 5.441406-1.191406 10.84375-4.503906 15.179687-2.976563 3.230469-7.171875 5.066407-11.566406 5.058594-4.394532-.007812-8.582032-1.859375-11.550782-5.101562zm0 0"/><path d="m173.203125 309.742188c4.078125.09375 8.15625-.1875 12.183594-.835938 2.195312-.507812 4.265625-1.445312 6.09375-2.757812 2.082031-1.488282 3.777343-3.457032 4.941406-5.734376 1.375-2.796874 2.042969-5.890624 1.941406-9.007812.179688-4.050781-1.007812-8.042969-3.375-11.332031-2.054687-2.792969-5-4.800781-8.351562-5.699219-4.613281-.765625-9.292969-1.058594-13.96875-.871094h-18.871094v58.171875h11.746094v-21.933593zm-7.660156-26.402344h5.675781c2.824219-.078125 5.648438.058594 8.453125.402344 1.824219.296874 3.488281 1.207031 4.722656 2.578124 1.273438 1.441407 1.941407 3.320313 1.871094 5.242188.03125 1.605469-.433594 3.1875-1.328125 4.523438-.902344 1.304687-2.183594 2.300781-3.671875 2.855468-3.03125.78125-6.164063 1.085938-9.289063.910156h-6.433593zm0 0"/><path d="m251.152344 283.347656v-9.84375h-43.140625v58.183594h44.25v-9.800781h-32.503907v-15.835938h29.210938v-9.800781h-29.210938v-12.902344zm0 0"/><path d="m296.714844 331.6875h11.789062v-58.183594h-10.910156v38.855469l-23.820312-38.855469h-11.429688v58.183594h10.914062v-37.9375zm0 0"/></svg>