
<svg xmlns="http://www.w3.org/2000/svg" id="Layer_1" data-name="Layer 1" viewBox="0 0 128 128" width="90" height="90"><title>STORE</title><path d="M47.875,29.289h.313a1.25,1.25,0,0,0,0-2.5h-.313a1.25,1.25,0,0,0,0,2.5Z"/><path d="M101.2,49.111a1.234,1.234,0,0,0-.086-.424l0-.014h0l-9-21.123a1.25,1.25,0,0,0-1.15-.76H52.719a1.25,1.25,0,0,0,0,2.5H90.135L98.07,47.912H29.93l7.935-18.623H42.5a1.25,1.25,0,0,0,0-2.5H37.039a1.25,1.25,0,0,0-1.15.76l-9,21.123h0l0,.014a1.234,1.234,0,0,0-.086.424c0,.018-.01.033-.01.051v6.156a7.25,7.25,0,0,0,5.994,7.128V99.961a1.25,1.25,0,0,0,1.25,1.25H93.968a1.25,1.25,0,0,0,1.25-1.25V66.833a1.25,1.25,0,1,0-2.5,0V98.711H77.237V75.987a1.25,1.25,0,0,0-1.25-1.25H52.013a1.25,1.25,0,0,0-1.25,1.25V94.875a1.25,1.25,0,1,0,2.5,0V77.237H74.737V98.711H35.282V62.446a7.253,7.253,0,0,0,4.744-3.066,7.236,7.236,0,0,0,11.987,0A7.237,7.237,0,0,0,64,59.38a7.237,7.237,0,0,0,11.987,0,7.236,7.236,0,0,0,11.987,0,7.241,7.241,0,0,0,13.237-4.062V49.162C101.211,49.144,101.2,49.128,101.2,49.111ZM34.032,60.062a4.749,4.749,0,0,1-4.744-4.744V50.412h9.487v4.906A4.749,4.749,0,0,1,34.032,60.062Zm11.987,0a4.749,4.749,0,0,1-4.744-4.744V50.412h9.487v4.906A4.749,4.749,0,0,1,46.019,60.062Zm11.987,0a4.749,4.749,0,0,1-4.744-4.744V50.412H62.75v4.906A4.749,4.749,0,0,1,58.006,60.062Zm11.987,0a4.749,4.749,0,0,1-4.744-4.744V50.412h9.487v4.906A4.749,4.749,0,0,1,69.994,60.062Zm11.987,0a4.749,4.749,0,0,1-4.743-4.744V50.412h9.487v4.906A4.749,4.749,0,0,1,81.98,60.062Zm11.987,0a4.749,4.749,0,0,1-4.744-4.744V50.412h9.487v4.906A4.749,4.749,0,0,1,93.968,60.062Z"/></svg>
