<?xml version="1.0" encoding="utf-8"?>
<!-- Generator: Adobe Illustrator 16.0.0, SVG Export Plug-In . SVG Version: 6.00 Build 0)  -->
<!DOCTYPE svg PUBLIC "-//W3C//DTD SVG 1.1//EN" "http://www.w3.org/Graphics/SVG/1.1/DTD/svg11.dtd">
<svg version="1.1" id="Layer_1" xmlns="http://www.w3.org/2000/svg" xmlns:xlink="http://www.w3.org/1999/xlink" x="0px" y="0px"
	 width="612px" height="792px" viewBox="0 0 612 792" enable-background="new 0 0 612 792" xml:space="preserve">
<g opacity="0.7">
	<g>
		<path fill="#7E8580" d="M393.072,530.752c-6.435-3.867-13.039-7.754-19.643-11.564c1.553-13.232,1.556-26.618,0.007-39.823
			c6.629-3.825,13.229-7.71,19.633-11.561c10.782-6.479,15.276-20.147,10.452-31.799c0,0,0,0-0.001-0.001l-14.07-33.969
			c-4.825-11.646-17.663-18.139-29.875-15.097c-7.257,1.807-14.671,3.728-22.06,5.709c-8.248-10.438-17.714-19.9-28.165-28.154
			c1.982-7.39,3.904-14.808,5.712-22.066c3.042-12.206-3.449-25.048-15.096-29.874l-33.969-14.069
			c-11.646-4.827-25.32-0.336-31.801,10.448c-3.859,6.423-7.748,13.027-11.563,19.643c-13.229-1.553-26.611-1.557-39.823-0.009
			c-3.827-6.635-7.713-13.236-11.559-19.634c-6.483-10.782-20.153-15.274-31.802-10.448l-33.968,14.069
			c-11.645,4.824-18.138,17.668-15.096,29.874c1.811,7.273,3.73,14.688,5.709,22.06c-10.437,8.246-19.901,17.714-28.153,28.165
			c-7.406-1.988-14.824-3.908-22.069-5.713c-12.209-3.044-25.049,3.452-29.874,15.098L1.931,436.004
			c-4.823,11.648-0.33,25.319,10.449,31.798c6.425,3.86,13.028,7.748,19.643,11.564c-1.552,13.228-1.556,26.61-0.008,39.823
			c-6.619,3.819-13.22,7.705-19.638,11.561c-10.779,6.48-15.272,20.149-10.448,31.8L16,596.517
			c4.824,11.646,17.661,18.141,29.875,15.097c7.248-1.805,14.664-3.725,22.057-5.709c8.249,10.437,17.715,19.898,28.165,28.153
			c-1.984,7.398-3.905,14.816-5.711,22.067c-3.042,12.205,3.448,25.049,15.096,29.873l33.97,14.071
			c3.155,1.307,6.458,1.93,9.726,1.93c8.8,0,17.35-4.517,22.079-12.377c3.831-6.375,7.717-12.977,11.563-19.642
			c13.226,1.551,26.612,1.553,39.823,0.008c3.8,6.588,7.686,13.188,11.559,19.635c6.48,10.782,20.15,15.272,31.801,10.448
			l33.969-14.07c11.645-4.824,18.138-17.668,15.096-29.873c-1.797-7.211-3.717-14.627-5.709-22.06
			c10.434-8.246,19.899-17.713,28.154-28.164c7.385,1.981,14.803,3.9,22.065,5.71c12.205,3.045,25.049-3.447,29.874-15.097
			l14.07-33.969C408.344,550.901,403.851,537.23,393.072,530.752z M364.708,584.661c-6.977-1.747-14.089-3.595-21.16-5.501
			c-10.012-2.692-20.577,0.828-26.917,8.974c-7.287,9.359-15.72,17.794-25.063,25.069c-8.137,6.338-11.651,16.899-8.956,26.905
			c1.916,7.117,3.763,14.225,5.499,21.152l-31.224,12.932c-3.714-6.196-7.433-12.527-11.067-18.844
			c-5.172-8.981-15.127-13.959-25.359-12.692c-11.752,1.46-23.68,1.459-35.446-0.006c-10.262-1.273-20.208,3.703-25.379,12.688
			c-3.679,6.388-7.398,12.723-11.072,18.854l-31.224-12.934c1.746-6.965,3.594-14.075,5.502-21.158
			c2.695-10.011-0.827-20.577-8.974-26.918c-9.358-7.285-17.792-15.717-25.069-25.06c-6.335-8.139-16.896-11.653-26.906-8.959
			c-7.08,1.906-14.188,3.755-21.15,5.5l-12.934-31.224c6.168-3.698,12.502-7.416,18.844-11.068
			c8.983-5.172,13.965-15.124,12.693-25.358c-1.462-11.752-1.458-23.679,0.004-35.447c1.276-10.243-3.702-20.206-12.689-25.38
			c-6.341-3.65-12.676-7.37-18.853-11.074l12.933-31.224c6.957,1.744,14.066,3.593,21.16,5.501
			c10.007,2.697,20.573-0.827,26.918-8.973c7.285-9.359,15.719-17.794,25.06-25.068c8.138-6.336,11.653-16.899,8.958-26.909
			c-1.9-7.057-3.749-14.164-5.5-21.149l31.225-12.933c3.686,6.151,7.405,12.484,11.067,18.845
			c5.173,8.982,15.136,13.972,25.359,12.691c11.746-1.462,23.672-1.462,35.449,0.006c10.25,1.277,20.207-3.708,25.378-12.69
			c3.649-6.34,7.37-12.675,11.071-18.852l31.224,12.933c-1.748,6.972-3.596,14.083-5.502,21.16
			c-2.695,10.01,0.827,20.576,8.973,26.918c9.358,7.285,17.792,15.717,25.069,25.06c6.335,8.136,16.894,11.651,26.908,8.957
			c7.074-1.905,14.182-3.753,21.149-5.499l12.932,31.223c-6.159,3.692-12.492,7.411-18.844,11.068
			c-8.982,5.173-13.966,15.126-12.693,25.36c1.462,11.746,1.46,23.674-0.006,35.449c-1.273,10.245,3.707,20.205,12.691,25.378
			c6.33,3.645,12.665,7.364,18.852,11.072L364.708,584.661z"/>
	</g>
</g>
<g opacity="0.7">
	<g>
		<path fill="#7E8580" d="M288.981,463.549C288.981,463.549,288.981,463.549,288.981,463.549
			c-19.699-47.562-74.416-70.229-121.983-50.528c-47.56,19.701-70.228,74.423-50.526,121.982
			c9.542,23.041,27.489,40.984,50.527,50.528c11.52,4.771,23.623,7.156,35.727,7.156s24.208-2.386,35.729-7.156
			C286.013,565.83,308.68,511.11,288.981,463.549z M227.97,560.221c-16.277,6.743-34.206,6.742-50.489,0
			c-16.277-6.742-28.956-19.422-35.7-35.701c-13.922-33.605,2.096-72.271,35.702-86.19c8.229-3.409,16.759-5.022,25.157-5.022
			c25.899,0,50.521,15.348,61.033,40.724C277.592,507.636,261.575,546.302,227.97,560.221z"/>
	</g>
</g>
<g opacity="0.7">
	<g>
		<path fill="#7E8580" d="M593.535,210.65c-4.729-0.708-9.585-1.395-14.477-2.048c-2.464-8.196-5.756-16.143-9.817-23.689
			c2.993-3.915,5.942-7.837,8.794-11.689c6.329-8.56,5.413-20.699-2.128-28.236l-18.896-18.894
			c-7.541-7.542-19.681-8.457-28.238-2.125c-3.865,2.86-7.786,5.81-11.688,8.791c-7.546-4.062-15.491-7.354-23.69-9.819
			c-0.653-4.891-1.339-9.747-2.046-14.475C489.775,97.939,480.544,90,469.879,90h-26.722c-10.665,0-19.896,7.939-21.47,18.464
			c-0.706,4.726-1.393,9.583-2.046,14.476c-8.199,2.466-16.146,5.758-23.69,9.819c-3.9-2.983-7.823-5.934-11.688-8.791
			c-8.56-6.332-20.699-5.417-28.238,2.124l-18.893,18.892c-7.543,7.54-8.459,19.681-2.128,28.242
			c2.849,3.851,5.799,7.773,8.79,11.688c-4.059,7.546-7.352,15.491-9.818,23.689c-4.89,0.654-9.747,1.34-14.475,2.048
			c-10.527,1.575-18.467,10.805-18.467,21.47v26.722c0,10.664,7.938,19.895,18.464,21.47c4.729,0.708,9.586,1.396,14.477,2.048
			c2.466,8.197,5.758,16.143,9.818,23.69c-2.989,3.911-5.939,7.831-8.794,11.688c-6.328,8.558-5.413,20.699,2.128,28.235
			l18.896,18.896c7.54,7.543,19.68,8.456,28.238,2.126c3.865-2.858,7.786-5.81,11.688-8.791c7.549,4.063,15.495,7.354,23.691,9.818
			c0.651,4.891,1.339,9.748,2.046,14.477c1.575,10.526,10.806,18.466,21.471,18.466h26.722c10.665,0,19.896-7.938,21.47-18.467
			c0.706-4.729,1.393-9.585,2.046-14.477c8.197-2.464,16.143-5.758,23.69-9.819c3.899,2.983,7.823,5.934,11.688,8.793
			c8.557,6.331,20.699,5.417,28.238-2.124l18.896-18.894c7.541-7.54,8.456-19.681,2.125-28.24c-2.853-3.856-5.802-7.779-8.79-11.687
			c4.059-7.546,7.352-15.49,9.817-23.69c4.891-0.653,9.748-1.34,14.476-2.047c10.527-1.576,18.467-10.805,18.467-21.471v-26.721
			C612,221.456,604.062,212.225,593.535,210.65z M585.976,255.123c-4.294,0.623-8.675,1.228-13.07,1.8
			c-8.693,1.135-15.81,7.305-18.127,15.718c-2.22,8.055-5.44,15.828-9.573,23.103c-4.316,7.594-3.65,16.991,1.696,23.944
			c2.695,3.505,5.369,7.032,7.972,10.518l-13.631,13.633c-3.497-2.609-7.024-5.282-10.521-7.972
			c-6.949-5.349-16.35-6.01-23.944-1.698c-7.276,4.134-15.049,7.354-23.1,9.574c-8.417,2.319-14.588,9.436-15.719,18.127
			c-0.572,4.396-1.176,8.777-1.8,13.071h-19.28c-0.623-4.294-1.227-8.675-1.8-13.066c-1.135-8.694-7.304-15.812-15.719-18.131
			c-8.053-2.218-15.823-5.439-23.102-9.573c-7.596-4.314-16.995-3.651-23.943,1.696c-3.499,2.69-7.023,5.362-10.522,7.972
			l-13.632-13.633c2.603-3.488,5.275-7.014,7.975-10.521c5.343-6.951,6.009-16.349,1.693-23.942
			c-4.132-7.274-7.354-15.049-9.573-23.102c-2.317-8.415-9.434-14.584-18.127-15.719c-4.396-0.574-8.777-1.176-13.07-1.802v-19.277
			c4.293-0.623,8.674-1.228,13.069-1.801c8.693-1.134,15.811-7.304,18.127-15.717c2.22-8.054,5.439-15.827,9.573-23.103
			c4.316-7.595,3.65-16.993-1.694-23.943c-2.7-3.51-5.372-7.036-7.973-10.52l13.632-13.632c3.496,2.609,7.022,5.282,10.519,7.97
			c6.947,5.35,16.346,6.017,23.947,1.7c7.273-4.133,15.048-7.354,23.099-9.574c8.418-2.319,14.588-9.437,15.719-18.127
			c0.574-4.396,1.179-8.776,1.802-13.07h19.28c0.622,4.293,1.227,8.674,1.799,13.066c1.134,8.694,7.305,15.812,15.718,18.129
			c8.055,2.22,15.829,5.442,23.104,9.575c7.596,4.315,16.995,3.646,23.942-1.697c3.498-2.689,7.023-5.362,10.522-7.972
			l13.631,13.632c-2.6,3.484-5.272,7.012-7.973,10.522c-5.345,6.95-6.009,16.348-1.696,23.941
			c4.132,7.276,7.354,15.051,9.573,23.103c2.317,8.415,9.434,14.584,18.127,15.719c4.396,0.573,8.777,1.178,13.07,1.801
			L585.976,255.123L585.976,255.123z"/>
	</g>
</g>
<g opacity="0.7">
	<g>
		<path fill="#7E8580" d="M456.518,190.017c-30.582,0-55.463,24.881-55.463,55.464c0,30.585,24.88,55.465,55.463,55.465
			c30.584,0,55.464-24.88,55.464-55.465C511.982,214.898,487.102,190.017,456.518,190.017z M456.518,276.291
			c-16.986,0-30.809-13.821-30.809-30.811s13.821-30.81,30.809-30.81c16.988,0,30.809,13.822,30.81,30.81
			C487.327,262.469,473.506,276.291,456.518,276.291z"/>
	</g>
</g>
</svg>
