<?xml version="1.0" encoding="iso-8859-1"?>
<!-- Generator: Adobe Illustrator 19.0.0, SVG Export Plug-In . SVG Version: 6.00 Build 0)  -->
<svg version="1.1" id="Capa_1" xmlns="http://www.w3.org/2000/svg" xmlns:xlink="http://www.w3.org/1999/xlink" x="0px" y="0px"
	 viewBox="0 0 512 512" style="enable-background:new 0 0 512 512;" xml:space="preserve">
<g>
	<g>
		<path d="M224.741,169.077l-8.803-8.804c-2.929-2.929-7.676-2.929-10.606,0c-2.929,2.929-2.929,7.677,0,10.606l8.803,8.803
			c2.929,2.929,7.676,2.93,10.606,0C227.669,176.753,227.669,172.004,224.741,169.077z"/>
	</g>
</g>
<g>
	<g>
		<path d="M110.688,283.128l-8.803-8.803c-2.928-2.929-7.676-2.93-10.605-0.001c-2.929,2.929-2.929,7.677,0,10.606l8.803,8.803
			c2.929,2.929,7.676,2.929,10.605,0C113.617,290.805,113.617,286.056,110.688,283.128z"/>
	</g>
</g>
<g>
	<g>
		<path d="M179.557,207.763c-4.109-0.519-7.862,2.393-8.38,6.5c-1.711,13.542-12.364,24.195-25.906,25.906
			c-4.109,0.519-7.02,4.271-6.499,8.38c0.519,4.11,4.271,7.02,8.38,6.5c10.169-1.285,19.253-5.927,26.116-12.791
			c6.863-6.863,11.506-15.947,12.789-26.116C186.577,212.034,183.667,208.282,179.557,207.763z"/>
	</g>
</g>
<g>
	<g>
		<path d="M476.231,205.587c-2.736-3.109-7.475-3.411-10.584-0.673c-3.108,2.737-3.41,7.476-0.673,10.584
			c20.655,23.46,32.029,53.614,32.029,84.907c0,70.881-57.665,128.546-128.545,128.546c-70.881,0-128.546-57.665-128.546-128.546
			s57.665-128.546,128.546-128.546c26.734,0,52.362,8.127,74.113,23.502c3.382,2.392,8.062,1.586,10.452-1.795
			c2.392-3.382,1.545-8.002-1.795-10.453c-36.732-26.959-85.28-26.236-86.53-26.204c-0.463-5.243,0.567-10.494,3.047-15.081
			c12.31-22.767,10.774-46.968-3.913-61.654c-14.687-14.686-38.89-16.22-61.652-3.913c-6.548,3.541-14.447,4.148-21.677,1.667
			c-32.288-11.084-69.026-11.308-106.24-0.647c-37.781,10.822-73.429,32.221-103.092,61.882
			C41.511,168.826,20.112,204.473,9.29,242.255C-1.37,279.47-1.147,316.207,9.936,348.496c2.481,7.228,1.874,15.128-1.666,21.675
			c-12.309,22.767-10.774,46.968,3.913,61.654c8.083,8.083,19.047,12.183,31.069,12.182c9.82-0.001,20.349-2.736,30.584-8.27
			c6.547-3.542,14.446-4.147,21.676-1.667c45.653,15.67,100.499,9.34,150.472-17.368c3.653-1.953,5.031-6.496,3.079-10.149
			c-1.951-3.653-6.492-5.031-10.148-3.08c-46.312,24.752-96.803,30.733-138.534,16.41c-11.181-3.838-23.456-2.869-33.677,2.659
			c-16.537,8.939-34.185,8.407-43.916-1.324c-9.732-9.732-10.265-27.38-1.324-43.915c5.526-10.223,6.495-22.498,2.658-33.678
			c-10.081-29.369-10.225-62.994-0.414-97.241c10.123-35.341,30.203-68.75,58.069-96.617c27.866-27.866,61.275-47.945,96.616-58.069
			c34.248-9.81,67.873-9.666,97.241,0.415c11.179,3.837,23.452,2.869,33.679-2.659c16.536-8.941,34.184-8.407,43.914,1.324
			c9.732,9.732,10.265,27.38,1.324,43.915c-3.859,7.138-5.513,15.278-4.826,23.386c-70.331,9.207-124.812,69.52-124.812,142.322
			c0,79.151,64.394,143.544,143.545,143.544c79.15,0,143.543-64.394,143.543-143.544
			C512.002,265.461,499.298,231.787,476.231,205.587z"/>
	</g>
</g>
<g>
	<g>
		<path d="M368.458,195.012c-58.114,0-105.394,47.28-105.394,105.394c0,14.274,2.858,27.892,8.023,40.318
			c0.001,0.002,0.001,0.003,0.002,0.005c0,0.001,0.001,0.002,0.001,0.003c15.864,38.162,53.531,65.067,97.368,65.067
			c58.114,0,105.394-47.28,105.394-105.393C473.852,242.291,426.573,195.012,368.458,195.012z M368.458,210.01
			c9.605,0,18.863,1.512,27.554,4.299l-26.056,62.904c-0.652,1.792-2.111,2.066-2.979,0l-26.058-62.909
			C349.606,211.52,358.858,210.01,368.458,210.01z M368.457,390.801c-9.605,0-18.862-1.512-27.554-4.299l26.056-62.904
			c0.976-2.468,2.435-1.556,2.979,0l26.058,62.909C387.309,389.291,378.057,390.801,368.457,390.801z M409.848,380.753
			l-26.051-62.895c-2.581-6.229-8.605-10.255-15.347-10.255s-12.767,4.026-15.346,10.254l-26.049,62.888
			c-16.667-8.624-30.323-22.282-38.945-38.951l62.895-26.052c6.229-2.581,10.255-8.604,10.255-15.347
			c0-6.742-4.025-12.767-10.255-15.346l-40.127-16.621c-3.825-1.585-8.213,0.232-9.798,4.059c-1.586,3.827,0.232,8.213,4.059,9.798
			l40.127,16.621c1.518,0.614,2.157,1.982,0,2.98l-62.909,26.058c-2.785-8.687-4.295-17.939-4.295-27.539
			c0-34.938,19.925-65.307,49.006-80.349l26.051,62.895c2.581,6.229,8.604,10.255,15.347,10.255c6.742,0,12.767-4.026,15.346-10.254
			l26.049-62.888c16.667,8.624,30.324,22.282,38.945,38.951l-62.895,26.052c-6.228,2.58-10.255,8.603-10.255,15.346
			c0,6.742,4.025,12.766,10.255,15.347l62.888,26.049C440.174,358.476,426.516,372.132,409.848,380.753z M391.651,301.903
			c-1.924-0.651-2.106-2.201,0-2.979l62.909-26.058c2.785,8.687,4.295,17.94,4.295,27.539c0,9.605-1.512,18.863-4.299,27.554
			L391.651,301.903z"/>
	</g>
</g>
<g>
</g>
<g>
</g>
<g>
</g>
<g>
</g>
<g>
</g>
<g>
</g>
<g>
</g>
<g>
</g>
<g>
</g>
<g>
</g>
<g>
</g>
<g>
</g>
<g>
</g>
<g>
</g>
<g>
</g>
</svg>
