<svg height="384pt" viewBox="0 0 384.00344 384" width="384pt" xmlns="http://www.w3.org/2000/svg"><path d="m168.050781 272.144531h-23.953125c-8.574218 0-16.613281-3.351562-22.636718-9.445312-5.984376-6.050781-9.226563-14.058594-9.128907-22.824219l-.199219-33.082031c-.050781-7.847657-.066406-10.199219-.074218-14.800781h175.5625c8.828125 0 16-7.167969 16-16 0-8.832032-7.171875-16-16-16l-191.433594.015624c-.046875 0-.089844-.015624-.136719-.015624s-.085937.015624-.136719.015624h-32.046874c-8.238282.472657-16.144532-2.550781-22.136719-8.230468-6.085938-5.769532-9.488281-13.574219-9.566407-22l-.160156-17.390625c-.089844-8.386719 3.167969-16.335938 9.160156-22.386719 6.152344-6.207031 14.351563-9.628906 23.167969-9.628906l95.734375-.371094c8.808594-.03125 15.9375-7.183594 15.9375-16v-48c0-8.832031-7.167968-16-16-16-8.832031 0-16 7.167969-16 16v32.066406l-79.746094.304688c-17.351562 0-33.628906 6.789062-45.839843 19.117187-12.046875 12.167969-18.582031 28.226563-18.41406275 45.21875l.16796875 17.398438c.167969 17.175781 7.128906 33.136719 19.566406 44.914062 11.671875 11.054688 26.769531 17.046875 42.167969 17.046875.890625 0 1.792969-.023437 2.679688-.066406h15.472656c.007812 4.683594.015625 7.042969.074218 15.007812l.199219 32.777344c-.191406 17.113282 6.328125 33.234375 18.367188 45.417969 12.078125 12.214844 28.199219 18.941406 45.398437 18.941406l23.875-.136719v24.640626c-.167968 17.121093-.089844 30.96875 0 39.511718.085938 8.785156 7.230469 15.832032 16 15.832032h.167969c8.832031-.09375 15.917969-7.328126 15.832031-16.167969-.089844-8.40625-.167968-22.023438 0-39.023438v-24.808593c0-17.550782-14.320312-31.847657-31.921875-31.847657zm0 0"/><path d="m319.769531 104h-79.6875l.441407-87.917969c.046874-8.832031-7.089844-16.0312498-15.921876-16.082031-8.863281.25-16.03125 7.089844-16.078124 15.921875l-.441407 88.078125h-128.125c-8.832031 0-16 7.167969-16 16s7.167969 16 16 16h143.964844.082031 95.710938c17.726562.066406 32.183594 14.289062 32.242187 31.714844l.046875 16.328125c.054688 17.511719-14.34375 31.847656-31.984375 31.957031h-71.984375c-.015625 0-.023437 0-.03125 0h-64.136718c-8.832032 0-16 7.167969-16 16s7.167968 16 16 16h48.105468l-.128906 72.9375.160156 47.121094c.03125 8.816406 7.183594 15.941406 16 15.941406h.054688c8.832031-.03125 15.976562-7.214844 15.945312-16.054688l-.160156-47.03125.136719-72.914062h56.144531c35.324219-.214844 63.980469-28.949219 63.878906-64.054688l-.046875-16.328124c-.105469-34.953126-28.875-63.488282-64.1875-63.617188zm0 0"/></svg>