<?xml version="1.0" encoding="utf-8"?>
<!-- Generator: Adobe Illustrator 16.0.0, SVG Export Plug-In . SVG Version: 6.00 Build 0)  -->
<!DOCTYPE svg PUBLIC "-//W3C//DTD SVG 1.1//EN" "http://www.w3.org/Graphics/SVG/1.1/DTD/svg11.dtd">
<svg version="1.1" id="Capa_1" xmlns="http://www.w3.org/2000/svg" xmlns:xlink="http://www.w3.org/1999/xlink" x="0px" y="0px"
	 width="384px" height="384px" viewBox="0 0 384 384" enable-background="new 0 0 384 384" xml:space="preserve">
<path opacity="0.7" fill="#7E8580" d="M168.049,272.145h-23.953c-8.574,0-16.612-3.352-22.636-9.445
	c-5.984-6.051-9.227-14.059-9.129-22.824l-0.199-33.082c-0.051-7.848-0.066-10.199-0.074-14.801h175.561c8.828,0,16-7.168,16-16
	s-7.172-16-16-16l-191.432,0.016c-0.047,0-0.09-0.016-0.137-0.016s-0.086,0.016-0.137,0.016H63.866
	c-8.238,0.473-16.145-2.551-22.137-8.23c-6.086-5.77-9.488-13.574-9.566-22l-0.16-17.391c-0.09-8.386,3.168-16.335,9.16-22.386
	c6.152-6.207,14.352-9.629,23.168-9.629l95.733-0.371c8.809-0.031,15.938-7.184,15.938-16v-48c0-8.832-7.168-16-16-16
	s-16,7.168-16,16v32.066l-79.745,0.305c-17.352,0-33.629,6.789-45.839,19.117C6.371,79.657-0.164,95.716,0.004,112.708l0.168,17.398
	c0.168,17.176,7.129,33.137,19.566,44.914c11.671,11.055,26.769,17.047,42.167,17.047c0.891,0,1.793-0.023,2.68-0.066h15.473
	c0.008,4.684,0.016,7.043,0.074,15.008l0.199,32.777c-0.191,17.113,6.328,33.234,18.367,45.417
	c12.078,12.215,28.199,18.941,45.397,18.941l23.875-0.137v24.64c-0.168,17.121-0.09,30.969,0,39.512
	c0.086,8.785,7.23,15.832,16,15.832h0.168c8.832-0.094,15.918-7.328,15.832-16.168c-0.09-8.406-0.168-22.023,0-39.023v-24.808
	C199.971,286.44,185.651,272.145,168.049,272.145z"/>
<path opacity="0.7" fill="#7E8580" d="M319.767,104.001H240.08l0.441-87.917c0.047-8.832-7.09-16.031-15.922-16.082
	c-8.863,0.25-16.031,7.09-16.078,15.922l-0.441,88.078H79.956c-8.832,0-16,7.167-16,16s7.168,16,16,16H223.92h0.082h95.71
	c17.726,0.066,32.183,14.289,32.241,31.714L352,184.043c0.055,17.512-14.344,31.848-31.983,31.957h-71.984c-0.016,0-0.023,0-0.031,0
	h-64.136c-8.832,0-16,7.168-16,16s7.168,16,16,16h48.105l-0.129,72.937l0.16,47.12c0.031,8.816,7.184,15.941,15.999,15.941h0.055
	c8.832-0.031,15.977-7.215,15.945-16.055l-0.16-47.03L263.978,248h56.145c35.323-0.215,63.979-28.949,63.878-64.055l-0.047-16.328
	C383.848,132.665,355.078,104.13,319.767,104.001z"/>
</svg>
