<?xml version="1.0" encoding="iso-8859-1"?>
<!-- Generator: Adobe Illustrator 19.0.0, SVG Export Plug-In . SVG Version: 6.00 Build 0)  -->
<svg version="1.1" id="Capa_1" xmlns="http://www.w3.org/2000/svg" xmlns:xlink="http://www.w3.org/1999/xlink" x="0px" y="0px"
	 viewBox="0 0 512 512" style="enable-background:new 0 0 512 512;" xml:space="preserve">
<g>
	<g>
		<path d="M316.992,0.001c-107.527,0-195.008,87.481-195.008,195.008c0,37.495,10.646,72.545,29.061,102.305L13.16,435.198
			c-17.547,17.546-17.547,46.096,0,63.643c17.546,17.545,46.095,17.546,63.642,0c3.872-3.872,127.46-127.459,137.886-137.885
			c29.76,18.414,64.811,29.06,102.305,29.06C424.52,390.017,512,302.536,512,195.009S424.52,0.001,316.992,0.001z M55.588,477.627
			c-5.849,5.849-15.365,5.849-21.214,0s-5.849-15.366,0-21.215l14.658-14.659l31.821,10.606L55.588,477.627z M104.572,428.643
			L72.75,418.036l33.923-33.923l31.821,10.607L104.572,428.643z M162.214,371.002l-31.822-10.607l38.577-38.577
			c9.462,11.027,20.112,20.437,21.184,21.246L162.214,371.002z M316.992,360.015c-40.72,0-78.035-14.835-106.844-39.373
			c-35.99-50.293-34.226-118.79,4.553-167.266c37.184-46.479,105.244-54.039,151.723-16.859
			c35.974,28.78,41.801,81.182,13.019,117.162c-21.937,27.419-62.093,31.883-89.513,9.946
			c-20.694-16.557-24.045-46.698-7.488-67.393c12.18-15.224,34.473-17.702,49.698-5.522c10.912,8.731,12.681,24.627,3.948,35.541
			c-5.175,6.469-4.127,15.909,2.342,21.084c6.471,5.176,15.912,4.125,21.085-2.342c19.091-23.862,15.23-58.619-8.634-77.71
			c-28.14-22.513-69.352-17.936-91.866,10.207c-26.914,33.64-21.471,82.646,12.174,109.561
			c40.354,32.285,99.424,25.689,131.68-14.631c39.138-48.923,31.225-120.189-17.704-159.331
			c-59.395-47.516-146.374-37.852-193.891,21.544c-21.494,26.867-33.638,58.796-36.354,91.385
			c-1.919-10.048-2.936-20.414-2.936-31.012c0-90.985,74.022-165.007,165.007-165.007s165.007,74.022,165.007,165.007
			S407.977,360.015,316.992,360.015z"/>
	</g>
</g>
<g>
</g>
<g>
</g>
<g>
</g>
<g>
</g>
<g>
</g>
<g>
</g>
<g>
</g>
<g>
</g>
<g>
</g>
<g>
</g>
<g>
</g>
<g>
</g>
<g>
</g>
<g>
</g>
<g>
</g>
</svg>
