<?xml version="1.0" encoding="utf-8"?>
<!-- Generator: Adobe Illustrator 16.0.0, SVG Export Plug-In . SVG Version: 6.00 Build 0)  -->
<!DOCTYPE svg PUBLIC "-//W3C//DTD SVG 1.1//EN" "http://www.w3.org/Graphics/SVG/1.1/DTD/svg11.dtd">
<svg version="1.1" id="Capa_1" xmlns="http://www.w3.org/2000/svg" xmlns:xlink="http://www.w3.org/1999/xlink" x="0px" y="0px"
	 width="612px" height="792px" viewBox="0 0 612 792" enable-background="new 0 0 612 792" xml:space="preserve">
<g opacity="0.7">
	<g>
		<path fill="#7E8580" d="M378.905,90.002c-128.527,0-233.096,104.566-233.096,233.096c0,44.817,12.727,86.714,34.737,122.287
			L15.731,610.198c-20.975,20.974-20.975,55.1,0,76.073c20.974,20.972,55.099,20.973,76.071,0
			c4.629-4.628,152.354-152.354,164.817-164.815c35.571,22.011,77.469,34.735,122.285,34.735
			C507.434,556.192,612,451.627,612,323.096C612,194.568,507.434,90.002,378.905,90.002z M66.445,660.914
			c-6.99,6.991-18.364,6.991-25.355,0c-6.992-6.99-6.992-18.366,0-25.357l17.521-17.522l38.036,12.679L66.445,660.914z
			 M124.996,602.363l-38.037-12.679l40.548-40.549l38.036,12.679L124.996,602.363z M193.897,533.465l-38.037-12.68l46.111-46.11
			c11.31,13.181,24.04,24.429,25.321,25.396L193.897,533.465z M378.905,520.331c-48.674,0-93.275-17.731-127.712-47.063
			c-43.02-60.116-40.91-141.991,5.442-199.936c44.445-55.558,125.799-64.594,181.354-20.151
			c43.001,34.4,49.966,97.038,15.563,140.045c-26.223,32.773-74.222,38.11-106.996,11.889c-24.736-19.79-28.741-55.818-8.95-80.556
			c14.559-18.197,41.205-21.159,59.404-6.602c13.043,10.438,15.157,29.438,4.719,42.483c-6.187,7.731-4.933,19.016,2.8,25.201
			c7.734,6.188,19.021,4.931,25.203-2.8c22.819-28.521,18.204-70.067-10.32-92.888c-33.636-26.91-82.896-21.438-109.809,12.2
			c-32.171,40.21-25.664,98.788,14.552,130.96c48.235,38.591,118.843,30.706,157.398-17.489
			c46.782-58.478,37.323-143.663-21.162-190.45c-70.995-56.796-174.962-45.244-231.76,25.753
			c-25.692,32.113-40.208,70.278-43.454,109.232c-2.294-12.01-3.51-24.399-3.51-37.068c0-108.756,88.479-197.234,197.233-197.234
			c108.756,0,197.235,88.479,197.235,197.234C576.137,431.849,487.658,520.331,378.905,520.331z"/>
	</g>
</g>
</svg>
