<?xml version="1.0" encoding="utf-8"?>
<!-- Generator: Adobe Illustrator 16.0.0, SVG Export Plug-In . SVG Version: 6.00 Build 0)  -->
<!DOCTYPE svg PUBLIC "-//W3C//DTD SVG 1.1//EN" "http://www.w3.org/Graphics/SVG/1.1/DTD/svg11.dtd">
<svg version="1.1" id="Capa_1" xmlns="http://www.w3.org/2000/svg" xmlns:xlink="http://www.w3.org/1999/xlink" x="0px" y="0px"
	 width="512px" height="512px" viewBox="0 0 512 512" enable-background="new 0 0 512 512" xml:space="preserve">
<path opacity="0.7" fill="#7E8580" d="M155,247.558V244.5h2.5c12.405,0,22.5-10.094,22.5-22.5c0-11.703-8.98-21.344-20.414-22.397
	c-3.699-33.75-32.367-60.103-67.086-60.103c-34.72,0-63.388,26.353-67.086,60.103C13.981,200.656,5,210.297,5,222
	c0,12.406,10.094,22.5,22.5,22.5H30v3.06c0,12.227-0.813,24.578-2.41,36.707c-0.543,4.104,2.348,7.875,6.453,8.414
	c4.108,0.547,7.875-2.349,8.418-6.453C44.149,273.453,45,260.441,45,247.558V244.5h95v3.06c0,32.065,5.18,63.741,15.391,94.141
	C165.086,370.558,170,400.625,170,431.066V470.5c0,14.613-11.888,26.5-26.5,26.5h-102C26.887,497,15,485.113,15,470.5v-39.434
	c0-30.441,4.914-60.512,14.608-89.367c2.521-7.5,4.767-15.203,6.677-22.891c1-4.023-1.449-8.09-5.474-9.09
	c-4.016-0.996-8.086,1.452-9.086,5.473c-1.813,7.301-3.945,14.608-6.336,21.729C5.18,367.324,0,398.996,0,431.066V470.5
	C0,493.384,18.617,512,41.5,512h102c22.883,0,41.5-18.616,41.5-41.5v-39.434c0-32.07-5.181-63.742-15.392-94.146
	C159.914,308.066,155,278,155,247.558z M92.5,154.5c26.401,0,48.315,19.595,51.965,45H40.535
	C44.184,174.094,66.098,154.5,92.5,154.5z M27.5,229.5c-4.138,0-7.5-3.362-7.5-7.5c0-4.137,3.362-7.5,7.5-7.5h130
	c4.137,0,7.5,3.363,7.5,7.5c0,4.138-3.363,7.5-7.5,7.5H27.5z"/>
<path opacity="0.7" fill="#7E8580" d="M374.5,443.082c4.145,0,7.5-3.354,7.5-7.5v-4.516c0-32.07-5.181-63.742-15.392-94.146
	C356.913,308.062,352,277.996,352,247.558v-4.461c3.569-1.957,6-5.746,6-10.099c0-8.949,0-193.391,0-221.5
	C358,5.16,352.84,0,346.5,0h-114C226.16,0,221,5.16,221,11.5V32c0,4.146,3.354,7.5,7.5,7.5c4.145,0,7.5-3.354,7.5-7.5V15h107v113.5
	H236V63.668c0-4.145-3.355-7.5-7.5-7.5c-4.146,0-7.5,3.355-7.5,7.5V233c0,4.353,2.43,8.142,6,10.099v4.461
	c0,30.438-4.914,60.508-14.609,89.362C202.18,367.324,197,398.996,197,431.066V470.5c0,22.884,18.617,41.5,41.5,41.5h102
	c22.883,0,41.5-18.616,41.5-41.5v-2.668c0-4.141-3.355-7.5-7.5-7.5c-4.146,0-7.5,3.359-7.5,7.5v2.668
	c0,14.613-11.888,26.5-26.5,26.5h-102c-14.613,0-26.5-11.887-26.5-26.5v-39.434c0-30.441,4.914-60.508,14.608-89.367
	C236.821,311.301,242,279.625,242,247.558V244.5h95v3.06c0,32.065,5.18,63.741,15.391,94.141
	C362.086,370.558,367,400.625,367,431.066v4.516C367,439.726,370.356,443.082,374.5,443.082z M343,143.5v31H236v-31H343z M236,229.5
	v-40h107v40H236z"/>
<path opacity="0.7" fill="#7E8580" d="M92.5,160.836c-4.142,0-7.5,3.355-7.5,7.5v0.5c0,4.142,3.358,7.5,7.5,7.5
	c4.141,0,7.5-3.358,7.5-7.5v-0.5C100,164.191,96.641,160.836,92.5,160.836z"/>
<path opacity="0.7" fill="#7E8580" d="M69,176c-4.142,0-7.5,3.355-7.5,7.5v0.5c0,4.146,3.358,7.5,7.5,7.5c4.141,0,7.5-3.354,7.5-7.5
	v-0.5C76.5,179.355,73.141,176,69,176z"/>
<path opacity="0.7" fill="#7E8580" d="M116,176c-4.142,0-7.5,3.355-7.5,7.5v0.5c0,4.146,3.358,7.5,7.5,7.5
	c4.141,0,7.5-3.354,7.5-7.5v-0.5C123.5,179.355,120.141,176,116,176z"/>
</svg>
