<?xml version="1.0" encoding="utf-8"?>
<!-- Generator: Adobe Illustrator 16.0.0, SVG Export Plug-In . SVG Version: 6.00 Build 0)  -->
<!DOCTYPE svg PUBLIC "-//W3C//DTD SVG 1.1//EN" "http://www.w3.org/Graphics/SVG/1.1/DTD/svg11.dtd">
<svg version="1.1" id="Capa_1" xmlns="http://www.w3.org/2000/svg" xmlns:xlink="http://www.w3.org/1999/xlink" x="0px" y="0px"
	 width="612px" height="792px" viewBox="0 0 612 792" enable-background="new 0 0 612 792" xml:space="preserve">
	 <g opacity="0.7">
<path fill="#7E8580" d="M494.8,329.27c-3.381-6.033-9.759-9.771-16.679-9.771H345.91l17.397-208.782
	c0.729-8.74-4.585-16.854-12.886-19.684c-8.265-2.849-17.463,0.337-22.227,7.705L117.824,423.86
	c-3.811,5.883-4.101,13.38-0.747,19.533c3.353,6.154,9.795,9.981,16.799,9.981h132.342l-17.537,228.033
	c-0.682,8.814,4.771,16.949,13.186,19.667c1.942,0.625,3.922,0.926,5.883,0.926c6.519,0,12.774-3.353,16.323-9.151l210.372-344.247
	C498.05,342.701,498.19,335.302,494.8,329.27L494.8,329.27z M292.916,605.01l13.026-169.292c0.411-5.313-1.419-10.554-5.033-14.467
	c-3.623-3.903-8.712-6.127-14.035-6.127h-117.84l149.814-231.54l-12.784,153.456c-0.438,5.332,1.364,10.597,4.987,14.537
	c3.623,3.933,8.721,6.172,14.072,6.172h118.895L292.916,605.01L292.916,605.01z"/>
	</g >
</svg>
