<?xml version="1.0" encoding="utf-8"?>
<!-- Generator: Adobe Illustrator 16.0.0, SVG Export Plug-In . SVG Version: 6.00 Build 0)  -->
<!DOCTYPE svg PUBLIC "-//W3C//DTD SVG 1.1//EN" "http://www.w3.org/Graphics/SVG/1.1/DTD/svg11.dtd">
<svg version="1.1" id="Capa_1" xmlns="http://www.w3.org/2000/svg" xmlns:xlink="http://www.w3.org/1999/xlink" x="0px" y="0px"
	 width="612px" height="792px" viewBox="0 0 612 792" enable-background="new 0 0 612 792" xml:space="preserve">
<g opacity="0.7">
	<g>
		<path fill="#7E8580" d="M510.823,363.001c-3.512-4.264-12.063-10.694-29.903-5.867c-10.822,2.931-22.772,9.476-33.649,18.432
			c-10.876,8.955-19.592,19.427-24.543,29.488c-4.58,9.308-5.117,16.424-4.087,21.63c-7.296,6.182-17.918,14.594-31.104,23.435
			c2.227-6.54,3.878-13.732,4.825-21.224c1.766-13.979,0.919-27.578-2.384-38.294c-5.443-17.66-15.448-21.459-20.929-22.151
			c-5.479-0.692-16.115,0.5-25.778,16.253c-5.863,9.559-10.063,22.521-11.829,36.498c-1.766,13.979-0.919,27.577,2.384,38.293
			c2.327,7.554,5.49,12.564,8.776,15.889c-4.863,2.215-9.86,4.33-14.991,6.297c-29.367,11.259-51.783,33.036-67.646,53.782
			c2.126-14.687,5.107-29.504,9.213-43.87c1.36-4.763-1.396-9.724-6.156-11.082c-4.762-1.361-9.723,1.396-11.082,6.157
			c-24.828,86.907-10.531,188.477-10.373,189.495c1.229,7.898-6.52,7.912-6.856,7.912c-3.393,0-6.321-2.539-6.814-5.905
			c-0.771-5.262-18.452-129.955,21.194-225.396c13.155-31.672,23.205-68.313,29.926-109.022c1.709,0.191,11.745,0.23,14.109-0.043
			c-6.281,38.877-15.663,74.534-27.96,106.123c-1.795,4.613,0.488,9.812,5.103,11.606c1.069,0.416,8.915,2.382,11.607-5.104
			c12.711-35.347,23.782-74.709,30.233-118.053c5.787-2.738,11.173-6.394,15.958-10.918c2.428-2.296,4.632-4.766,6.625-7.366
			c7.356,3.005,23.648,6.414,39.794,2.19c31.479-8.233,40.665-36.294,40.865-36.308c16.358-0.973,31.358-8.258,42.238-20.515
			c10.879-12.256,16.334-28.015,15.36-44.374c-1.074-18.047-9.995-34.621-24.476-45.471c-3.964-2.97-9.581-2.163-12.551,1.798
			c-2.97,3.963-2.163,9.582,1.798,12.551c10.252,7.683,16.567,19.414,17.33,32.188c0.688,11.578-3.173,22.73-10.873,31.404
			c-6.648,7.49-15.475,12.35-25.213,13.981c1.407-20.521-7.6-41.011-24.798-53.668c2.057-1.735,3.959-3.495,5.663-5.267
			c23.47-24.364,22.739-63.279-1.625-86.751c-17.84-17.183-44.075-21.757-66.384-12.354C320.623,97.473,304.732,90,287.116,90
			c-17.613,0-33.507,7.474-44.705,19.399c-22.292-9.361-48.648-4.728-66.387,12.358c-11.796,11.361-18.033,26.344-18.687,41.542
			c-14.81,0.134-28.907,5.525-40.09,15.451c-12.257,10.878-19.542,25.879-20.516,42.238c-2.01,33.771,23.829,62.878,57.601,64.887
			c0.199,0.014,6.527,25.242,40.865,36.308c13.217,4.259,33.549,0.564,41.362-2.884c6.431,8.695,15.071,15.558,25.04,19.843
			c-6.494,40.026-16.263,75.91-29.071,106.748c-5.766,13.876-10.371,28.322-14.034,42.925
			c-5.769-13.495-12.693-28.662-20.677-44.317c-3.939-7.729-6.928-15.445-9.221-22.729c4.045-3.596,7.992-9.813,9.684-20.569
			c1.74-11.077,0.639-24.657-3.103-38.241c-3.739-13.583-9.745-25.813-16.909-34.438c-11.812-14.216-22.512-13.878-27.833-12.412
			c-5.325,1.466-14.688,6.651-17.557,24.909c-1.742,11.076-0.642,24.655,3.099,38.239c3.74,13.583,9.746,25.813,16.912,34.439
			c6.731,8.104,13.097,11.468,18.315,12.602c2.017,6.497,4.545,13.324,7.721,20.271c-5.186-1.709-10.746-3.084-16.557-4.052
			c-13.897-2.315-27.52-2.006-38.356,0.87c-17.861,4.741-22.052,14.59-22.959,20.037c-0.907,5.445-0.042,15.979,15.222,26.398
			c4.94,3.373,10.708,0.119,12.438-2.465c2.754-4.115,1.649-9.684-2.465-12.436c-5.854-3.919-7.712-7.325-7.508-8.554
			c0.609-3.655,15.62-10.342,40.684-6.169c13.529,2.254,25.892,7.294,32.548,13.224c1.103,2.358,2.174,4.692,3.22,7.001
			c-1.234,1.334-4.107,3.118-9.155,4.459c-8.308,2.206-19.536,2.393-30.811,0.515c-4.884-0.818-9.503,2.486-10.315,7.369
			c-0.814,4.884,2.485,9.502,7.368,10.315c6.16,1.026,26.731,3.061,50.31-5.807c3.623,8.535,6.767,16.363,9.394,23.145
			c-13.212,80.165-2.438,156.188-1.829,160.345c1.774,12.104,12.33,21.232,24.556,21.232c1.208,0,28.088-1.911,24.601-28.418
			c-0.088-0.657-6.302-45.041-3.196-99.26c5.205-9.407,12.69-21.404,22.448-33.318c1.694,3.395,4.301,7.088,8.2,11.005
			c7.911,7.944,19.521,15.075,32.692,20.08c11.678,4.436,56.516,8.984,64.23-8.443c2.236-5.051,3.304-15.78-9.736-28.878
			c-7.91-7.945-19.521-15.076-32.69-20.08c-9.029-3.431-18.174-5.624-26.64-6.442c6.063-3.84,12.531-7.188,19.411-9.823
			c5.635-2.16,11.104-4.479,16.414-6.9c1.221,3.958,3.533,8.454,7.518,13.428c7.007,8.753,17.779,17.097,30.333,23.49
			c12.555,6.395,53.941,17.604,64.767-1.463c2.727-4.804,4.989-15.332-6.561-29.76c-7.008-8.753-17.78-17.097-30.336-23.49
			c-6.585-3.355-13.313-5.99-19.841-7.82c14.112-9.363,25.486-18.334,33.413-25.05c2.849,1.321,24.33,7.541,56.565-17.889
			c11.062-8.728,19.593-19.429,24.543-29.489C519.006,376.894,514.334,367.264,510.823,363.001z M400.082,272.909
			c-6.093,20.086-19.319,28.863-30.479,32.021c-8.722,2.469-17.782,2.153-26.159-0.796c2.301-6.215,3.606-12.823,3.797-19.642
			c0.359-12.872-3.249-29.364-9.487-44.546c13.877-2.434,28.245-8.051,40.458-15.098
			C378.455,224.983,408.031,240.203,400.082,272.909z M342.323,124.609c14.955-4.813,31.748-1.205,43.445,10.063
			c17.244,16.609,17.761,44.153,1.15,61.398c-14.797,15.359-45.888,28.492-66.335,27.213c17.27-19.789,27.884-51.47,27.884-71.931
			C348.469,141.77,346.258,132.697,342.323,124.609z M287.116,107.929c23.942,0,43.421,19.479,43.421,43.423
			c0,13.188-5.692,32.039-14.168,46.902c-9.1,15.964-19.763,25.118-29.255,25.118c-9.491,0-20.154-9.154-29.256-25.118
			c-8.474-14.863-14.168-33.715-14.168-46.902C243.695,127.409,263.173,107.929,287.116,107.929z M188.464,134.672
			c11.628-11.2,28.486-14.84,43.441-10.057c-3.932,8.086-6.142,17.157-6.142,26.737c0,20.461,10.613,52.141,27.884,71.931
			c-20.447,1.278-51.54-11.854-66.335-27.213C170.702,178.825,171.219,151.281,188.464,134.672z M150.717,267.443
			c-9.739-1.634-18.564-6.494-25.213-13.984c-7.7-8.674-11.562-19.827-10.872-31.403c0.688-11.579,5.845-22.195,14.519-29.896
			c8.334-7.396,18.963-11.242,30.052-10.919c4.668,18.164,17.551,29.61,18.838,30.771
			C159.201,224.469,149.241,245.939,150.717,267.443z M243.479,292.053c-1.053-4.84-5.834-7.907-10.665-6.854
			c-4.839,1.054-7.906,5.827-6.854,10.666c0.563,2.592,1.286,5.115,2.155,7.562c-8.89,3.598-18.656,4.157-28.033,1.506
			c-11.161-3.158-20.424-10.475-26.082-20.6c-11.682-20.899-4.241-49.158,19.924-60.722c12.313,7.424,27.081,13.444,41.405,16.133
			c-1.841,4.06-3.514,8.21-4.957,12.444c-1.599,4.686,0.905,9.78,5.592,11.378c0.959,0.327,8.754,1.896,11.378-5.591
			c2.002-5.715,4.457-11.499,7.251-16.839c5.928-0.359,11.491-1.574,16.453-3.788c5.057,2.528,10.432,3.957,16.07,3.957
			c5.638,0,11.013-1.429,16.068-3.957c4.682,2.09,9.9,3.279,15.456,3.709c6.79,14.269,11.011,30.986,10.676,42.938
			c-0.324,11.594-5.144,22.367-13.571,30.337c-8.429,7.969-19.476,12.7-31.048,11.854
			C260.11,324.391,246.838,307.49,243.479,292.053z M175.963,408.822c-1.196,0.33-4.78-1.167-9.281-6.582
			c-5.491-6.611-10.381-16.723-13.415-27.741c-6.745-24.498-1.644-40.119,1.929-41.104c0.104-0.028,13.471-0.894,22.698,34.322
			C187.121,402.934,177.163,408.491,175.963,408.822z M334.889,531.446c23.611,9.388,33.349,22.364,32.032,25.829
			c-1.316,3.464-17.35,7.073-41.104-1.95c-10.684-4.059-20.289-9.88-26.353-15.969c-4.97-4.991-6.121-8.697-5.679-9.861
			C294.227,528.331,307.74,520.652,334.889,531.446z M356.998,463.854c-1.234-0.155-3.967-2.911-6.039-9.644
			c-2.532-8.213-3.162-19.427-1.729-30.766c3.127-24.758,13.513-37.222,17.366-37.222c0.069,0,12.691,1.003,7.976,40.421
			C370.3,462.344,360.682,464.301,356.998,463.854z M408.026,489.7c10.304,4.946,19.104,12.011,24.478,18.721
			c4.401,5.499,5.146,9.307,4.581,10.416c-0.563,1.108-4.079,2.739-11.118,2.417c-8.585-0.4-19.35-3.605-29.533-8.793
			c-22.64-11.534-30.739-25.834-29.059-29.137C367.414,483.243,374.425,473.572,408.026,489.7z M474.904,409.124
			c-8.823,7.266-18.641,12.72-26.937,14.965c-6.799,1.84-10.587,1.002-11.379,0.042c-0.792-0.961-0.887-4.841,2.224-11.16
			c3.796-7.712,10.633-16.813,19.854-23.564c27.604-20.205,37.866-15.551,38.314-15.006
			C499.338,377.26,494.52,392.971,474.904,409.124z"/>
	</g>
</g>
</svg>
