<?xml version="1.0" encoding="iso-8859-1"?>
<!-- Generator: Adobe Illustrator 19.0.0, SVG Export Plug-In . SVG Version: 6.00 Build 0)  -->
<svg version="1.1" id="Capa_1" xmlns="http://www.w3.org/2000/svg" xmlns:xlink="http://www.w3.org/1999/xlink" x="0px" y="0px"
	 viewBox="0 0 512 512" style="enable-background:new 0 0 512 512;" xml:space="preserve">
<g>
	<g>
		<path d="M427.356,228.393c-2.938-3.567-10.093-8.948-25.018-4.909c-9.054,2.451-19.052,7.927-28.151,15.419
			s-16.391,16.253-20.533,24.67c-3.832,7.787-4.281,13.74-3.419,18.096c-6.104,5.171-14.99,12.209-26.021,19.605
			c1.862-5.471,3.244-11.489,4.036-17.756c1.477-11.694,0.769-23.071-1.994-32.036c-4.554-14.775-12.924-17.953-17.509-18.532
			c-4.584-0.579-13.482,0.418-21.566,13.597c-4.905,7.996-8.419,18.84-9.896,30.534c-1.477,11.694-0.769,23.071,1.994,32.036
			c1.947,6.319,4.593,10.512,7.342,13.292c-4.068,1.853-8.249,3.622-12.541,5.268c-24.569,9.419-43.323,27.638-56.593,44.994
			c1.779-12.286,4.274-24.682,7.708-36.702c1.138-3.983-1.168-8.134-5.151-9.271c-3.983-1.139-8.134,1.168-9.271,5.151
			c-20.771,72.708-8.811,157.68-8.678,158.533c1.027,6.608-5.454,6.619-5.737,6.619c-2.837,0-5.288-2.124-5.701-4.94
			c-0.646-4.402-15.437-108.722,17.731-188.568c11.006-26.497,19.414-57.151,25.036-91.208c1.43,0.16,9.826,0.193,11.804-0.036
			c-5.255,32.524-13.104,62.355-23.391,88.782c-1.502,3.86,0.409,8.208,4.269,9.71c0.894,0.348,7.458,1.993,9.71-4.269
			c10.634-29.571,19.898-62.502,25.295-98.763c4.841-2.291,9.347-5.348,13.35-9.134c2.031-1.921,3.875-3.986,5.543-6.163
			c6.154,2.514,19.784,5.366,33.291,1.833c26.335-6.888,34.021-30.364,34.188-30.374c13.686-0.814,26.235-6.909,35.337-17.163
			c9.101-10.253,13.665-23.437,12.851-37.123c-0.899-15.098-8.362-28.964-20.476-38.041c-3.316-2.484-8.016-1.81-10.5,1.504
			c-2.484,3.315-1.81,8.016,1.504,10.5c8.577,6.427,13.861,16.242,14.498,26.928c0.576,9.687-2.654,19.017-9.096,26.274
			c-5.562,6.266-12.945,10.331-21.093,11.697c1.178-17.168-6.357-34.31-20.746-44.899c1.72-1.452,3.312-2.924,4.738-4.405
			c19.634-20.384,19.024-52.941-1.359-72.576c-14.925-14.375-36.874-18.202-55.537-10.337C268.235,6.252,254.939,0,240.202,0
			c-14.735,0-28.031,6.251-37.4,16.229c-18.65-7.831-40.7-3.954-55.539,10.34c-9.868,9.505-15.087,22.039-15.633,34.754
			c-12.389,0.111-24.184,4.623-33.539,12.927c-10.254,9.1-16.349,21.65-17.163,35.336c-1.681,28.252,19.936,52.604,48.188,54.285
			c0.167,0.01,5.462,21.117,34.188,30.374c11.057,3.563,28.067,0.473,34.605-2.412c5.379,7.275,12.608,13.015,20.948,16.6
			c-5.433,33.487-13.605,63.506-24.321,89.305c-4.823,11.609-8.677,23.695-11.742,35.911c-4.825-11.29-10.619-23.979-17.297-37.076
			c-3.297-6.466-5.796-12.922-7.714-19.015c3.384-3.007,6.686-8.208,8.1-17.208c1.457-9.267,0.535-20.628-2.594-31.992
			c-3.129-11.364-8.153-21.596-14.147-28.812c-9.881-11.893-18.833-11.61-23.285-10.384c-4.455,1.227-12.287,5.565-14.688,20.839
			c-1.457,9.267-0.536,20.628,2.593,31.992c3.129,11.364,8.153,21.596,14.148,28.812c5.632,6.779,10.957,9.594,15.323,10.542
			c1.687,5.435,3.802,11.148,6.459,16.959c-4.338-1.43-8.99-2.58-13.851-3.39c-11.627-1.937-23.022-1.678-32.089,0.728
			c-14.943,3.967-18.449,12.206-19.208,16.763c-0.759,4.557-0.035,13.368,12.735,22.086c4.133,2.822,8.958,0.1,10.404-2.062
			c2.304-3.443,1.381-8.101-2.062-10.404c-4.898-3.278-6.452-6.128-6.281-7.155c0.511-3.059,13.069-8.652,34.036-5.161
			c11.319,1.886,21.661,6.102,27.23,11.062c0.921,1.974,1.818,3.927,2.693,5.857c-1.033,1.116-3.437,2.61-7.66,3.731
			c-6.949,1.845-16.344,2.001-25.775,0.43c-4.086-0.684-7.95,2.08-8.631,6.165c-0.681,4.086,2.08,7.95,6.165,8.631
			c5.154,0.859,22.364,2.56,42.088-4.858c3.031,7.141,5.661,13.69,7.859,19.362c-11.053,67.066-2.04,130.668-1.53,134.145
			C177.299,504.363,186.13,512,196.357,512c1.011,0,23.499-1.6,20.581-23.775c-0.073-0.551-5.272-37.681-2.674-83.041
			c4.355-7.87,10.617-17.907,18.78-27.874c1.418,2.839,3.598,5.929,6.861,9.206c6.618,6.647,16.332,12.613,27.351,16.799
			c9.769,3.711,47.28,7.517,53.735-7.064c1.871-4.225,2.764-13.202-8.145-24.159c-6.618-6.647-16.332-12.613-27.35-16.799
			c-7.554-2.87-15.204-4.705-22.286-5.39c5.073-3.212,10.484-6.013,16.24-8.219c4.714-1.807,9.29-3.747,13.732-5.773
			c1.021,3.312,2.956,7.073,6.288,11.234c5.862,7.323,14.875,14.302,25.377,19.652c10.503,5.35,45.128,14.728,54.184-1.224
			c2.281-4.019,4.174-12.827-5.489-24.897c-5.862-7.323-14.875-14.302-25.378-19.652c-5.509-2.807-11.138-5.011-16.599-6.542
			c11.806-7.834,21.322-15.339,27.953-20.957c2.383,1.105,20.355,6.309,47.323-14.966c9.254-7.3,16.391-16.253,20.533-24.67
			C434.201,240.016,430.293,231.96,427.356,228.393z M334.71,153.022c-5.097,16.804-16.163,24.147-25.5,26.789
			c-7.296,2.065-14.876,1.802-21.884-0.666c1.924-5.198,3.017-10.728,3.176-16.431c0.301-10.769-2.718-24.566-7.938-37.267
			c11.61-2.036,23.631-6.736,33.847-12.631C316.617,112.927,341.361,125.66,334.71,153.022z M286.389,28.954
			c12.512-4.026,26.561-1.008,36.347,8.418c14.426,13.896,14.858,36.939,0.962,51.366c-12.378,12.85-38.389,23.837-55.496,22.767
			c14.448-16.556,23.328-43.06,23.328-60.178C291.53,43.311,289.68,35.72,286.389,28.954z M240.202,15
			c20.031,0,36.327,16.296,36.327,36.327c0,11.034-4.763,26.804-11.853,39.24c-7.613,13.354-16.534,21.014-24.475,21.014
			c-7.941,0-16.862-7.66-24.475-21.014c-7.089-12.436-11.853-28.206-11.853-39.24C203.875,31.296,220.171,15,240.202,15z
			 M157.669,37.372c9.728-9.371,23.832-12.415,36.344-8.413c-3.289,6.765-5.138,14.354-5.138,22.368
			c0,17.118,8.879,43.621,23.328,60.178c-17.107,1.069-43.119-9.917-55.496-22.767C142.81,74.311,143.242,51.268,157.669,37.372z
			 M126.09,148.449c-8.148-1.367-15.531-5.433-21.093-11.699c-6.442-7.257-9.672-16.588-9.096-26.273
			c0.576-9.687,4.89-18.569,12.147-25.01c6.972-6.189,15.864-9.405,25.14-9.135c3.905,15.196,14.683,24.772,15.76,25.743
			C133.188,112.497,124.856,130.459,126.09,148.449z M203.695,169.038c-0.881-4.048-4.881-6.615-8.923-5.734
			c-4.048,0.881-6.615,4.875-5.734,8.923c0.472,2.168,1.076,4.279,1.803,6.325c-7.436,3.01-15.608,3.479-23.453,1.26
			c-9.337-2.642-17.086-8.762-21.82-17.233c-9.772-17.485-3.548-41.126,16.668-50.8c10.302,6.211,22.656,11.248,34.64,13.497
			c-1.539,3.395-2.939,6.868-4.147,10.411c-1.337,3.92,0.758,8.182,4.678,9.519c0.802,0.273,7.324,1.587,9.519-4.678
			c1.675-4.781,3.729-9.62,6.066-14.087c4.959-0.301,9.614-1.317,13.765-3.169c4.23,2.116,8.727,3.31,13.444,3.31
			s9.214-1.194,13.444-3.31c3.917,1.748,8.283,2.744,12.931,3.103c5.68,11.937,9.211,25.924,8.931,35.921
			c-0.271,9.7-4.303,18.713-11.354,25.38c-7.051,6.667-16.293,10.625-25.975,9.918C217.608,196.092,206.505,181.952,203.695,169.038
			z M147.211,266.727c-1.001,0.276-3.999-0.976-7.765-5.507c-4.594-5.531-8.684-13.99-11.223-23.208
			c-5.643-20.495-1.375-33.564,1.614-34.388c0.087-0.024,11.269-0.747,18.989,28.715
			C156.546,261.801,148.215,266.45,147.211,266.727z M280.169,369.314c19.753,7.854,27.899,18.71,26.798,21.609
			c-1.101,2.898-14.514,5.917-34.387-1.632c-8.938-3.395-16.974-8.265-22.047-13.359c-4.158-4.176-5.121-7.276-4.751-8.25
			S257.456,360.284,280.169,369.314z M298.666,312.767c-1.033-0.13-3.318-2.436-5.053-8.068c-2.118-6.87-2.645-16.252-1.447-25.738
			c2.616-20.712,11.305-31.139,14.529-31.139c0.059,0,10.618,0.839,6.672,33.816C309.794,311.502,301.747,313.139,298.666,312.767z
			 M341.355,334.389c8.62,4.138,15.983,10.048,20.477,15.661c3.683,4.601,4.306,7.786,3.833,8.714
			c-0.472,0.928-3.413,2.293-9.302,2.022c-7.182-0.335-16.187-3.016-24.707-7.356c-18.941-9.649-25.717-21.612-24.31-24.375
			C307.38,328.987,313.245,320.897,341.355,334.389z M397.305,266.979c-7.381,6.078-15.595,10.641-22.535,12.519
			c-5.688,1.539-8.857,0.838-9.52,0.035c-0.662-0.804-0.741-4.049,1.861-9.336c3.175-6.451,8.895-14.066,16.61-19.714
			c23.092-16.904,31.679-13.01,32.054-12.554C417.747,240.322,413.716,253.466,397.305,266.979z"/>
	</g>
</g>
<g>
</g>
<g>
</g>
<g>
</g>
<g>
</g>
<g>
</g>
<g>
</g>
<g>
</g>
<g>
</g>
<g>
</g>
<g>
</g>
<g>
</g>
<g>
</g>
<g>
</g>
<g>
</g>
<g>
</g>
</svg>
