<?xml version="1.0" encoding="utf-8"?>
<!-- Generator: Adobe Illustrator 16.0.0, SVG Export Plug-In . SVG Version: 6.00 Build 0)  -->
<!DOCTYPE svg PUBLIC "-//W3C//DTD SVG 1.1//EN" "http://www.w3.org/Graphics/SVG/1.1/DTD/svg11.dtd">
<svg version="1.1" id="Layer_1" xmlns="http://www.w3.org/2000/svg" xmlns:xlink="http://www.w3.org/1999/xlink" x="0px" y="0px"
	 width="612px" height="792px" viewBox="0 0 612 792" enable-background="new 0 0 612 792" xml:space="preserve">
<g opacity="0.7">
	<g>
		<path fill="#7E8580" d="M526.755,337.795c-2.575-5.162-8.848-7.261-14.009-4.688c-5.162,2.573-7.262,8.844-4.688,14.007
			c13.009,26.096,19.604,55.905,19.604,88.601c0,46.258-21.249,107.49-55.454,159.804c-35.045,53.596-75.791,85.593-108.994,85.593
			c-13.835,0-28.68-2.183-41.798-6.146c-20.466-6.183-42.104-6.183-62.568,0c-13.12,3.964-27.965,6.146-41.799,6.146
			c-33.205,0-73.95-31.999-108.996-85.593c-34.206-52.313-55.453-113.546-55.453-159.804c0-43.702,12.09-82.982,34.962-113.596
			c19.244-25.756,46.069-44.62,73.594-51.758c20.564-5.332,47.683-3.917,78.426,4.087c3.359,0.875,6.798,1.676,10.214,2.378
			c5.648,1.158,11.172-2.479,12.333-8.13c1.162-5.649-2.479-11.171-8.129-12.333c-3.063-0.63-6.143-1.345-9.152-2.129
			c-34.668-9.026-64.589-10.402-88.934-4.093c-32.511,8.429-62.728,29.551-85.086,59.475
			c-25.591,34.25-39.117,77.854-39.117,126.099c0,50.097,22.553,115.711,58.859,171.234c39.498,60.405,85.599,95.05,126.479,95.05
			c16.053,0,32.596-2.434,47.837-7.035c16.514-4.988,33.973-4.988,50.487,0c15.243,4.604,31.785,7.035,47.839,7.035
			c40.881,0,86.979-34.645,126.479-95.05c36.305-55.524,58.86-121.139,58.86-171.234
			C548.552,399.757,541.218,366.811,526.755,337.795z"/>
	</g>
</g>
<g opacity="0.7">
	<g>
		<path fill="#7E8580" d="M504.948,303.861c-21.807-26.819-50.431-45.897-80.6-53.72c-24.344-6.312-54.267-4.936-88.936,4.093
			c-7.51,1.957-15.222,3.438-22.923,4.406c-5.723,0.719-9.778,5.939-9.062,11.665c0.719,5.724,5.949,9.784,11.665,9.062
			c8.596-1.079,17.203-2.732,25.586-4.917c30.747-8.006,57.865-9.417,78.427-4.087c25.886,6.713,50.616,23.289,69.633,46.677
			c2.064,2.539,5.075,3.855,8.11,3.855c2.315,0,4.646-0.767,6.582-2.34C507.907,314.916,508.586,308.337,504.948,303.861z"/>
	</g>
</g>
<g opacity="0.7">
	<g>
		<path fill="#7E8580" d="M575.472,97.854c-3.45-2.206-7.872-2.192-11.312,0.036c-14.999,9.728-31.85,6.158-57.356,0.76
			c-2.217-0.47-4.478-0.946-6.781-1.426c-5.646-1.173-11.177,2.455-12.35,8.104s2.455,11.177,8.104,12.351
			c2.276,0.473,4.51,0.944,6.699,1.408c19.162,4.059,36.49,7.727,52.817,4.536c-7.854,28.065-28.506,80.135-76.479,98.62
			c-40.566,15.632-78.688-6.283-109.319-23.892c-12.288-7.064-23.146-13.306-32.794-16.02
			c10.869-23.065,37.829-67.152,86.313-70.836c14.106-1.072,28.139-0.725,42.89,1.062c5.731,0.688,10.933-3.39,11.624-9.114
			c0.693-5.729-3.389-10.932-9.114-11.625c-16.122-1.95-31.492-2.327-46.979-1.152c-33.147,2.519-62.809,20.616-85.772,52.335
			c-14.705,20.313-22.187,39.956-24.087,45.355l-27.491,41.75c-7.737-23.399-15.412-38.065-16.029-39.229
			c-2.706-5.095-9.029-7.03-14.123-4.325c-5.095,2.704-7.031,9.027-4.326,14.122c0.26,0.486,24.354,46.503,29.216,106.799
			c-8.006-0.897-15.364-2.734-21.1-5.332c-6.921-3.136-9.071-6.315-9.071-7.119c0-5.77-4.676-10.444-10.443-10.444
			c-5.769,0-10.444,4.676-10.444,10.444c0,6.152,2.772,17.734,21.341,26.146c11.129,5.043,25.698,7.819,41.021,7.819
			c15.327,0,29.899-2.776,41.031-7.818c18.569-8.411,21.345-19.992,21.345-26.146c0-5.77-4.677-10.444-10.444-10.444
			c-5.771,0-10.445,4.676-10.445,10.444c0,0.804-2.149,3.982-9.072,7.118c-6.126,2.774-14.11,4.679-22.756,5.5
			c-1.37-18.562-4.413-35.815-8.116-51.063l36.055-54.753c1.229,0.052,3.453,0.438,7.199,1.916
			c6.584,2.605,14.732,7.289,24.171,12.714c24.5,14.083,55.782,32.072,90.938,32.069c11.707,0,23.85-1.998,36.303-6.797
			c78.161-30.118,93.25-129.389,93.854-133.6C580.766,104.082,578.923,100.059,575.472,97.854z"/>
	</g>
</g>
</svg>
