<?xml version="1.0" encoding="utf-8"?>
<!-- Generator: Adobe Illustrator 16.0.0, SVG Export Plug-In . SVG Version: 6.00 Build 0)  -->
<!DOCTYPE svg PUBLIC "-//W3C//DTD SVG 1.1//EN" "http://www.w3.org/Graphics/SVG/1.1/DTD/svg11.dtd">
<svg version="1.1" id="Capa_1" xmlns="http://www.w3.org/2000/svg" xmlns:xlink="http://www.w3.org/1999/xlink" x="0px" y="0px"
	 width="103.117px" height="103.115px" viewBox="0 0 103.117 103.115" enable-background="new 0 0 103.117 103.115"
	 xml:space="preserve">
<g>
	<path fill="#7E8580" d="M53.876,1.147c-1.043-1.528-3.604-1.528-4.64,0c-1.333,1.979-32.702,48.505-32.702,66.947
		c0,19.306,15.718,35.021,35.021,35.021c19.306,0,35.021-15.716,35.021-35.021C86.58,49.652,55.208,3.12,53.876,1.147z
		 M51.557,97.512c-16.221,0-29.417-13.188-29.417-29.418c0-12.796,19.461-45.122,29.417-60.317
		c9.959,15.195,29.419,47.511,29.419,60.317C80.976,84.323,67.776,97.512,51.557,97.512z M54.358,89.107
		c0,1.548-1.259,2.803-2.801,2.803c-13.135,0-23.813-10.683-23.813-23.814c0-1.543,1.261-2.802,2.802-2.802s2.801,1.259,2.801,2.802
		c0,10.047,8.169,18.211,18.211,18.211C53.099,86.305,54.358,87.553,54.358,89.107z"/>
</g>
</svg>
