<?xml version="1.0" encoding="utf-8"?>
<!-- Generator: Adobe Illustrator 16.0.0, SVG Export Plug-In . SVG Version: 6.00 Build 0)  -->
<!DOCTYPE svg PUBLIC "-//W3C//DTD SVG 1.1//EN" "http://www.w3.org/Graphics/SVG/1.1/DTD/svg11.dtd">
<svg version="1.1" id="Capa_1" xmlns="http://www.w3.org/2000/svg" xmlns:xlink="http://www.w3.org/1999/xlink" x="0px" y="0px"
	 width="612px" height="792px" viewBox="0 0 612 792" enable-background="new 0 0 612 792" xml:space="preserve">
<path fill="#7E8580" d="M599.655,421.595c-8.662-3.588-18.188-0.868-23.703,6.763c-22.125,30.612-51.923,55.017-86.173,70.575
	c-35.699,16.218-75.56,22.36-115.259,17.771c-98.281-11.366-177.862-90.949-189.226-189.231
	c-4.59-39.702,1.555-79.557,17.773-115.256c15.559-34.249,39.964-64.046,70.574-86.17c7.631-5.517,10.35-15.043,6.764-23.703
	c-3.612-8.724-12.331-13.576-21.698-12.074c-74.8,11.997-142.381,51.204-190.294,110.398
	C19.766,260.772-4.305,336.635,0.634,414.281c4.706,73.987,36.604,144.04,89.821,197.259
	c53.217,53.218,123.27,85.118,197.257,89.827c6.658,0.423,13.294,0.633,19.917,0.633c70.615-0.002,138.749-23.937,193.699-68.413
	c59.196-47.912,98.404-115.494,110.401-190.295C613.231,433.927,608.379,425.206,599.655,421.595z M592.693,440.239
	c-11.244,70.101-47.998,133.443-103.494,178.362c-56.335,45.598-127.448,68.169-200.263,63.523
	c-69.303-4.41-134.95-34.318-184.847-84.216c-49.898-49.898-79.806-115.547-84.214-184.85
	c-4.631-72.807,17.929-143.927,63.525-200.261c44.917-55.494,108.26-92.249,178.36-103.493c0.129-0.021,0.228-0.028,0.307-0.028
	c0.216,0,0.276,0.068,0.347,0.148c0.227,0.26,0.277,0.607,0.251,0.697c-0.014,0.027-0.1,0.141-0.316,0.299
	c-33.322,24.082-59.892,56.526-76.834,93.82c-17.665,38.886-24.364,82.264-19.371,125.445
	c12.381,107.079,99.084,193.786,206.163,206.168c43.185,4.997,86.562-1.704,125.448-19.369
	c37.297-16.944,69.741-43.514,93.824-76.835c0.157-0.217,0.271-0.303,0.296-0.314c0.088-0.033,0.441,0.023,0.7,0.249
	C592.683,439.682,592.77,439.759,592.693,440.239z"/>
</svg>
