<svg id="Logo" data-name="logo" xmlns="http://www.w3.org/2000/svg" viewBox="0 0 282.64 244.47">
  <defs>
    <style>
      .cls-1 {
        fill: #b3bda5;
      }

      .cls-2 {
        fill: #d8838a;
      }
    </style>
  </defs>
  <title>tt</title>
  <g>
    <path class="cls-1" d="M4.19,126.32a124.11,124.11,0,0,1,1.66-20.18A122.21,122.21,0,0,1,146.33,5.48a4.28,4.28,0,0,1-1.4,8.45,113.64,113.64,0,0,0-37,224.25,113.64,113.64,0,0,0,130.63-93.61A4.28,4.28,0,0,1,247,146a122.19,122.19,0,0,1-219.9,51.26A121.31,121.31,0,0,1,4.19,126.32Z" transform="translate(-4.19 -3.82)"/>
    <path class="cls-1" d="M166.64,102.63H146l-9.69,45.68c-1.23,5.69-2.15,10.61-2.15,13.84,0,4.46,2.31,7.08,6.15,7.08,7.23,0,15.54-10.61,21.38-30.92l2.92.62a75.43,75.43,0,0,1-6.45,17.69c-6.31,12.15-13.39,18-24.92,18-10.61,0-20-7.38-20-19.23,0-6.76,1.39-13.38,2.77-20.14L123,102.63H106.51l.61-3.08h16.46L129.88,70c2.31,2.31,4.93,4.31,8,4.31,7.85,0,12.31-5.38,17.08-13.84L146.8,99.55h20.46Z" transform="translate(-4.19 -3.82)"/>
    <path class="cls-2" d="M130.77,102.63H110.16l-9.69,45.68c-1.23,5.69-2.15,10.61-2.15,13.84,0,4.46,2.3,7.08,6.15,7.08,7.23,0,15.53-10.61,21.38-30.92l2.92.62a75.4,75.4,0,0,1-6.46,17.69c-6.31,12.15-13.38,18-24.92,18-10.61,0-20-7.38-20-19.23,0-6.76,1.38-13.38,2.77-20.14l6.92-32.61H70.63l.62-3.08H87.7L94,70c2.31,2.31,4.92,4.31,8,4.31,7.84,0,12.3-5.38,17.07-13.84l-8.15,39.06h20.45Z" transform="translate(-4.19 -3.82)"/>
    <g>
      <path class="cls-1" d="M286.63,52.88a73.73,73.73,0,0,0-8.06-6.77,107,107,0,0,0-9.64-6.47c-2-1.18-2.26-1.38-2.06-1.77a.73.73,0,0,0-.21-.91c-.69-.71-6.26-3.08-9.14-3.89-1.73-.49-2.61-.84-2.55-1,.35-1,.46-.94-5.2-2.21-3-.66-6.88-1.39-8.72-1.64-3.07-.41-3.36-.48-3.48-.9-.22-.77-2.09-.95-10.45-1.06l-4.62-.06a2,2,0,0,1,0-.56c0-.48-.07-.57-.93-.74-.54-.1-5-.1-10,0s-9.41.12-9.94,0c-.84-.13-1-.22-.91-.7a1.26,1.26,0,0,0-.37-.9c-.28-.25-3.76-1.08-11-2.65-5.83-1.26-10.7-2.4-10.81-2.53a3,3,0,0,1-.39-1c-.23-1-.74-1.27-4.15-1.88s-12.52-3-16.81-4.33a24.9,24.9,0,0,1-4.59-1.9c-2.78-1.62-4.45-2.2-9.06-3.15s-5.63-1-5.82-.15.08,1.39,3.86,7.93A128.79,128.79,0,0,1,149.9,29.8c6.18,14.09,15.69,30,20.29,33.92.81.69.92.73,1.55.5s.7-.21,2.91,2.81c4.95,6.73,9.79,12.49,12.26,14.6,1.47,1.27,2.8,1.77,3.16,1.22s.37-.35,5.57,4.65c5.63,5.42,5.81,5.56,6.68,4.79.41-.36.49-.33,2.2,1,3,2.33,5.46,4,6.33,4.16s.92.16,1.61-1.32a2.24,2.24,0,0,1,.41-.7s1.56,1.07,3.36,2.35,3.82,2.66,4.48,3.06,2.3,1.46,3.63,2.36c4.79,3.22,6.13,3.62,6.2,1.87,0-.62.14-.86.43-.9.59-.08,5.28,2,8,3.62,2.85,1.66,3.39,1.83,3.71,1.2a1.25,1.25,0,0,1,.28-.43s.75.5,1.6,1.11c4.58,3.25,12.63,6.7,13.3,5.7.18-.26-3.37-12.75-4.82-16.94a70,70,0,0,0-5.61-12.12c-.78-1.35-.94-1.83-.69-2s0-.7-.93-2.26c-1.09-1.79-6.71-9.63-8.24-11.51-.46-.58-.49-.73-.18-1.1s.28-.54,0-1c-.46-.74-2.4-2.75-6.31-6.52-2.61-2.52-3-3-2.87-3.46s0-.72-.88-1.58c-3-3-5.67-5.21-11.75-9.55-.21-.15,4,.78,9.41,2.07,8.81,2.1,9.87,2.31,10.49,2.08s.68-.39.65-.73c-.05-.53-.05-.53,3.8-.27,1.35.09,4.87.58,7.84,1.09,5.53,1,6.24,1,6.37.43.06-.25.48-.24,1.83.07A84.82,84.82,0,0,0,266,53.59a2.27,2.27,0,0,0,1.19-.3c.17-.17,1-.14,2.42.07,1.21.19,3.05.37,4.14.41s3.85.16,6.16.29c5.44.28,6.8.21,6.93-.36a1.19,1.19,0,0,0-.18-.82Zm-5.7.43c-1.82-.13-4.54-.27-6-.33a51.9,51.9,0,0,1-6.18-.75c-3.24-.6-3.46-.61-3.57-.17-.15.67-1.17.56-6.92-.74a38.84,38.84,0,0,0-5.22-1,.59.59,0,0,0-.33.64c0,.47-.13.46-4.66-.44S237.46,49,235.91,49.22a.8.8,0,0,0-.75.65c-.16.69-.59.91-.93.49a3.88,3.88,0,0,0-1-.63c-.44-.19-1.5-.74-2.38-1.24-1.54-.87-1.85-1.39-.66-1.11.3.07.59,0,.63-.14s-.3-.3-1.1-.36c-.64,0-1.28-.1-1.41-.12-.48-.07-4.95-3.58-4.68-3.67a18.62,18.62,0,0,1,2.46,0,7.1,7.1,0,0,0,2.23-.13c.07-.28-.56-.36-2.9-.37a6.5,6.5,0,0,0-2.24.2c-.06.12-.86-.35-1.75-1s-2.14-1.61-2.76-2a4.16,4.16,0,0,1-1-.84c.05,0,1.76,0,3.82.2,3.47.25,4.23.23,4-.1a56.93,56.93,0,0,0-8.06-.51c-.1.1-.52-.07-.93-.37-.66-.49-.68-.56-.19-.53.3,0,.59-.12.63-.28.14-.62,3.68-.3,8.19.74,4.85,1.11,5.46,1.38,12,5.23,3.73,2.2,12.07,5.93,12.44,5.56s-.15-.66-4-2.23a55.9,55.9,0,0,1-7.06-3.44c-1.75-1-3.82-2.21-4.62-2.64l-1.44-.78,6.44,1.47c6.95,1.58,7.74,1.86,13.64,4.86,3.57,1.81,9.67,4.54,9.87,4.41.35-.22-.11-.49-3.6-2.1-2-.9-4.7-2.24-6.11-3L250.08,44l5.06,1.26c4.66,1.17,5.29,1.38,8,2.69A84.89,84.89,0,0,0,273,51.86c.85.3,1.55.18,1.29-.22a32,32,0,0,0-3-1.18c-1.63-.59-3.62-1.38-4.42-1.76L265.34,48l1.74.52c5.11,1.52,11.05,3.14,14.18,3.86,2.13.49,3.41.87,3.25,1a20.66,20.66,0,0,1-3.58-.06Zm-.75-2.49c-6.92-1.86-17.43-5-17.27-5.15a17.28,17.28,0,0,1,3-.42c2.62-.23,3.2-.19,7.24.51s4.5.83,5.41,1.43a54.58,54.58,0,0,1,5.7,4.58,29.74,29.74,0,0,1-4.09-1Zm-13.31-6.21c-1,.08-2.62.27-3.65.43l-1.87.29-6.06-1.55C252,42.92,249,42.11,248.74,42s1.51-.75,8.31-2.39c6.54-1.59,8.75-2,8.58-1.72-.28.55.06.83,3.79,3.11,1.71,1,4,2.54,5.2,3.34l2.12,1.46-4.05-.65a26.61,26.61,0,0,0-5.82-.5Zm-9.93,70c-.06-.17-4-4-8.68-8.56-10.21-9.84-18.07-17.79-17.79-18,.1-.07,3.2,1.65,8.4,4.67a102.12,102.12,0,0,1,11.33,7.8c2.22,1.83,2.26,1.86,2.35,1.49s-3.83-3.4-7.37-5.84c-3.15-2.17-6.61-4.28-12.11-7.36l-3.94-2.21L226,83.37c-1.72-1.8-4.8-4.79-6.83-6.66-4.44-4.08-11.79-11.2-11.65-11.29s7.43,3.44,10.43,5.24c1.91,1.14,7.29,3.9,12.35,6.34,10.18,4.89,12.66,6,13.59,6.08s.54-.15-3.69-2c-2.05-.9-5.9-2.69-8.55-4l-7.48-3.63c-3.6-1.74-3-1.68,1,.1a22.73,22.73,0,0,0,3.4,1.36c.42-.13-.37-.56-4.52-2.46-2.16-1-4.23-2-4.59-2.18s-.71-.32-.84-.2-1-.28-2.21-1-3.56-1.89-5.43-2.73-3.46-1.61-3.51-1.69a5.55,5.55,0,0,1,1.72.27c1.13.26,1.83.32,1.87.15s-.82-.43-2.66-.8l-2.71-.55-2.49-2.53c-1.37-1.39-4.53-4.57-7-7s-4.46-4.54-4.41-4.57c.23-.14,10.12,2.77,12,3.54a178.33,178.33,0,0,1,16.6,8.16c4,2.13,8.55,4.57,10.2,5.43,3,1.56,5.63,2.57,5.71,2.21s-2.65-1.65-4-2.06c-.58-.17-4.53-2.19-8.8-4.49-9.62-5.18-11.2-6-15.28-7.86a56.39,56.39,0,0,0-11.82-4.24l-5.6-1.54-2.16-2.08c-2.06-2-14.81-13.74-16.12-14.87-.35-.31-.47-.51-.27-.47.84.17,8.55,3,12.52,4.59,15.68,6.3,17.71,7.08,21.44,8.18,5.25,1.55,6.08,2,10.7,5.23a69.67,69.67,0,0,1,9,7.32c1.14,1.09,1.31,1.36,1.12,1.8s.12.84,2.79,3.4c5.24,5,7.06,7,6.68,7.22a1,1,0,0,0-.39.5,44.14,44.14,0,0,0,3.51,5.1c5.06,6.79,6.33,8.7,5.95,9s-.11,1,1.22,3.27a71.71,71.71,0,0,1,4.76,9.85c1.13,3,5.63,17.49,5.55,17.91,0,.12-.1.09-.16-.08Zm-3.59-1a48.62,48.62,0,0,1-8.62-4.85,15.43,15.43,0,0,0-2.38-1.55c-.66-.15-3.5-4.14-7.31-10.27l-3.53-5.69,2.62,2.66c1.44,1.46,5,4.89,7.84,7.61,10.83,10.29,13.43,12.79,13.37,12.83a13.89,13.89,0,0,1-2-.74Zm4.62-75c-.05-.34-4.71-1.38-4.78-1.08s.88.46,2.25.78c1.82.43,2.2.58,1.8.7-.56.17-.93.12-4-.51-1.12-.23-2-.3-2-.16s.76.43,1.89.69l2,.46-4.47,1-4.47,1-8.84-2.18-8.83-2.18,1.41-.37c.78-.2,2.63-.76,4.11-1.23,3-1,3.31-1,8.51-.51,2.07.19,3.81.31,3.89.26.43-.27-.34-.45-2.95-.7-5.38-.5-4.93-.42-4.13-.67s2.94-.1,6.18.41a6,6,0,0,0,2.39.13c0-.16-.89-.4-2.64-.71l-2.69-.47,2.37-.57a41.29,41.29,0,0,1,4.79-.81c3.18-.31,3.29-.31,2.69-.09-.91.32-.31.68,2.1,1.23a49.42,49.42,0,0,1,10.27,3.77c.19.12-1.13.57-3.24,1.08a15.08,15.08,0,0,1-3.59.65Zm-16.41,69.83c-.15-.08-1.21-.71-2.35-1.4a41.44,41.44,0,0,0-7.68-3.53c-1-.24-1.47,0-1.7,1s-.66.93-2.65-.94A30.27,30.27,0,0,1,219.52,92c-.73-1.88-1.67-4.16-2.09-5.08s-1.4-3.21-2.17-5.11a81.06,81.06,0,0,0-4.69-10l-1.2-2.09L211,71.24c.89.85,3.92,3.64,6.76,6.21s6.59,6.16,8.35,8c3,3.17,3.44,3.75,8,11,2.67,4.2,5.43,8.37,6.12,9.25,1.27,1.62,1.7,2.33,1.62,2.66,0,.11-.16.13-.32,0Zm.69-75.6c-2.5.58-6,1.52-7.77,2.07s-4.14,1.27-5.27,1.57l-2,.55L219,35.08c-4.51-1-8.33-2-8.47-2.16s0-.31.72-.43c3.82-.64,12.19-2.27,18-3.5,6.54-1.39,6.9-1.44,7.24-1s.59.54,3,.81a100.18,100.18,0,0,1,11,2l1.16.35-2.37.27c-1.29.16-4.41.76-6.91,1.34Zm-20.15,67.9c-2-1.33-4.8-3.27-6.19-4.28a29.23,29.23,0,0,0-2.78-1.91c-.5-.12-1.3.55-1.45,1.21l-.16.69-.85-.94a28.87,28.87,0,0,1-2.47-3.64c-2.31-3.88-4.36-8.94-7.23-17.84-1-3-2.23-6.63-2.8-8.06-1.36-3.4-4.32-10-5.09-11.43-.34-.6-.55-1.07-.48-1.06a9,9,0,0,1,1.07.93c.69.66,1.39,1.92,2.61,4.64a15.57,15.57,0,0,0,1.81,3.48,11.88,11.88,0,0,0-1-3c-.66-1.5-1.22-2.8-1.24-2.91a22.22,22.22,0,0,1,2.39,2.24c2.45,2.46,2.9,3.14,6.8,10.46.32.6.7,1.07.84,1.06a17,17,0,0,0-1.77-3.81,39.29,39.29,0,0,1-1.86-3.64,19.9,19.9,0,0,1,3.29,3.35,17.47,17.47,0,0,0,1,2.84c1.24,3,1.11,2.78,1.44,2.75a6.94,6.94,0,0,0-.78-2.5,13.1,13.1,0,0,1-.92-2.54c.27-.17,2,2.07,3.22,4.19a71.4,71.4,0,0,1,5.06,10.63c.95,2.33,2.08,5,2.51,5.93s1.36,3.17,2.08,5a22.34,22.34,0,0,0,3.1,5.9c1,1.41,2.22,3,2.73,3.54a6,6,0,0,1,.87,1s-1.71-1-3.72-2.39Zm-.29-53.13a10.24,10.24,0,0,1-2.92-1.05c.1-.11-.14-.26-.54-.35s-.7-.27-.67-.41a.27.27,0,0,1,.35-.16,1,1,0,0,0,.69-.32c.33-.33.32-.42-.1-.65a17.31,17.31,0,0,0-2.41-.7,57.79,57.79,0,0,1-7.44-2.16c.08,0,2.24.41,4.8,1,3.14.74,4.72,1,4.87.87s.8,0,2.27.54c2.45.91,3.07,1.06,3.13.77s-4.5-1.87-9-3.3l-2.2-.7,2.29.49c1.49.32,2.34.4,2.45.24s.6,0,1.79.53c1.91.91,2.47,1.08,2.21.67a13.19,13.19,0,0,0-2.54-1.35,13.86,13.86,0,0,1-2.43-1.27,9.41,9.41,0,0,0-2.29-.88,24.81,24.81,0,0,1-3-1.07c-1.41-.72,2.36.23,5.22,1.31a16.64,16.64,0,0,1,5,2.8c1.34,1,3.36,2.48,4.47,3.27s2.45,1.77,3,2.15a20.21,20.21,0,0,0,2.44,1.48l1.54.79-4-.84c-2.18-.46-5.35-1.23-7.06-1.71Zm5.86-18.79c-3.29.7-8,1.64-10.52,2.09s-5.33,1-6.33,1.26a5.56,5.56,0,0,1-3.16.11l-1.36-.32,1.81-.27,2.26-.34c.26,0,.43-.17.39-.31a8,8,0,0,0-2.73.14c-2.83.4-3,.37-6.25-1-1.5-.63-1.8-.94-.72-.75.57.1,1.07-.41.52-.53a.59.59,0,0,1-.36-.56c0-.32-.49-.76-1.47-1.36-1.29-.77-1.41-.9-1-1.08a6.05,6.05,0,0,1,2.06,0c1.54.21,9.85.17,16-.07,4.74-.19,4.5-.21,4.37.34a.71.71,0,0,0,.24.72,46.66,46.66,0,0,0,6.23.29c5.79.06,6.43.08,6.17.25-.08.05-2.86.66-6.16,1.36Zm-6.81,43c-.18-.12-.11-.16.17-.11s.37.14.28.19a.49.49,0,0,1-.45-.08ZM209,95.65a22.82,22.82,0,0,1-5-4.35c-.48-.83-.91-1.07-.83-.46,0,.27-.1.35-.43.27a.65.65,0,0,0-.73.36c-.43.84-.47.81-7.57-6.21a33.17,33.17,0,0,0-3.73-3.38c-.5-.12-1.52-2.84-3-8.09l-2.63-9c-2.32-7.9-2.57-8.85-2.39-9s-1.79-6.21-3.33-10.2c-1.34-3.47-3.57-7.59-4.07-7.52-.17,0-.67-.55-1.1-1.27l-.8-1.32.93.85,3.08,2.83c1.2,1.09,3.32,3,4.75,4.27s4,3.68,5.78,5.35c2.81,2.69,3.33,3.31,4.38,5.27A123.84,123.84,0,0,1,200,73.19c3.31,10.52,5.05,14.82,7.78,19.22a21,21,0,0,0,2.76,3.76q.73.52.33.51a7,7,0,0,1-1.88-1Zm7.14-52.81c-.34-.13,0-.1.68.06s1,.27.63.24a5.41,5.41,0,0,1-1.31-.3Zm-.44-6.47a6.51,6.51,0,0,1-1.6-.61c-.51-.29-.11-.26,1.71.16s2.19.56,1.6.6a6.53,6.53,0,0,1-1.71-.15Zm-5,3.41c-.62-.43-.57-.44,1-.15A16.55,16.55,0,0,1,216,40.77c1,.43.89.43-1.74,0-2.13-.37-3-.62-3.51-1Zm5.18-.9c-.71-.26-1.1-.52-1-.68s-.59-.68-1.58-1.26S211.77,36,212,36c.55.09,5.36,3.17,5.12,3.28a11.57,11.57,0,0,1-1.2-.41ZM211,43.49c-.44-.31-.33-.33.69-.1a25.6,25.6,0,0,1,2.68.79l1.47.52-2.16-.42a10.51,10.51,0,0,1-2.68-.79Zm3-1.4c-.28-.12-.08-.12.44,0s.75.21.51.22a2.92,2.92,0,0,1-1-.21ZM213,37.64c-.18-.12-.12-.16.17-.11s.37.13.28.19a.49.49,0,0,1-.45-.08Zm-3.09-.91c-.88-.18-.91-.21-.4-.45s.43-.28-1-.5-3.26-1-3.17-1.37c0-.11-.34-.29-.84-.41a4,4,0,0,1-1.3-.55c-.28-.21.47-.08,2.15.4,3,.84,7.54,3.09,6.24,3.08a11,11,0,0,1-1.66-.2Zm-1.41,1.47c-.34-.31-.33-.33.15-.23a7,7,0,0,1,1.26.47l.75.36-.9-.14a2.89,2.89,0,0,1-1.26-.46Zm-.18,4.59c-.29-.12-.09-.13.43,0s.75.21.51.21a2.84,2.84,0,0,1-.94-.2Zm-.6-1.47a7.54,7.54,0,0,1-2.73,0c-2.09-.32-3-.11-1.21.29.73.17,1,.34,1,.52s.24.44.66.64.11.18-1.08-.15c-1.89-.53-4.52-1.56-15.77-6.15-7-2.86-17.31-6.58-18.14-6.54a32.33,32.33,0,0,1-3.1-2.48l-2.9-2.48,3.75.79a21.73,21.73,0,0,0,4,.62c.33-.2-6-2-7.29-2.05a3.93,3.93,0,0,1-1.51-.36c-1-.61.48-.46,4.48.44,5,1.13,5.48.78.6-.45-3.33-.84-3.28-.84,1.13.13,4,.87,4.58.95,4.53.62-.1-.65,5.8.82,8.28,2.07a11,11,0,0,1,2.25,1.38,2.37,2.37,0,0,0,1.17.61c.56.13.83.31.78.52s.13.44.39.58.39.32.29.43c-.58.59.72,1.25,8,4,6.23,2.37,10.68,4.5,12.74,6.1.72.56.7.63-.29,1Zm.38-7.3c-.18-.12-.11-.16.18-.11s.37.14.28.19a.48.48,0,0,1-.46-.08Zm-2.74,8.09c-.22-.12-.08-.15.32,0s.57.18.39.21a1.28,1.28,0,0,1-.71-.16Zm.25-5.92c-.18-.12-.11-.16.18-.11s.37.13.28.19a.51.51,0,0,1-.46-.08Zm-4.44-4c-.47-.16-.06-.11.91.11s1.36.36.86.3a9.68,9.68,0,0,1-1.77-.41Zm-.91,1.29c-.17-.12-.11-.16.18-.11s.37.13.28.19a.51.51,0,0,1-.46-.08Zm-11.14,48.8c-.69-.16-1.58-.89-1.36-1.11s-.36-1-1-1.88a44.66,44.66,0,0,1-4.89-8.12c-1.08-2.54-1.69-2.74-.72-.24a57.79,57.79,0,0,0,5.11,8.58c.8,1.15,1,1.5.5,1a121.05,121.05,0,0,1-11.33-14.15c-2.56-3.61-2.68-3.73-3.3-3.51-.4.14-.58-.17-1.37-2.34-1.19-3.25-1.31-3.78-2.07-9.11-1.63-11.38-3.56-17.81-7.74-25.78l-.89-1.7,1.24,1.11c1.43,1.28,1.66,1.57,1.39,1.74-.11.07-.4-.18-.66-.57-1-1.54-.71-.32.7,2.59.82,1.71,1.92,4.3,2.47,5.82.93,2.58,1.26,3.19,1.4,2.59a70.78,70.78,0,0,0-3.33-8.48c-.37-.73-.55-1.37-.41-1.42s.56.58.94,1.41a25.92,25.92,0,0,0,1.76,3.09,18.69,18.69,0,0,1,1.86,3.93,9.81,9.81,0,0,0,1,2.41c.43.1.45.18-2.26-7.56-.53-1.49-1.05-2.07-1.22-1.33-.05.19,0,.38.13.4a1.7,1.7,0,0,1,.48.8l.26.74-.57-.84a13.88,13.88,0,0,1-1-2l-.49-1.17,1.55,1.33a6.35,6.35,0,0,1,2,2.48,19,19,0,0,0,1.06,2.17,18.62,18.62,0,0,1,1.26,3.59c.6,2.38.91,3,1.07,2.33S169,33,168.38,32c-.84-1.26-.64-1.43.47-.4.47.43.78.84.69.9a5,5,0,0,0,.56,1.89,15.41,15.41,0,0,1,.71,1.92c-.08.33,1.49,3.77,1.62,3.55s-.34-1.72-1.76-5.41l-.77-2,1.07,1c1.23,1.09,4.81,6.88,6.33,10.21a158.77,158.77,0,0,1,5.76,16.56c.67,2.42,1.28,4.52,1.35,4.67s.93,3,1.9,6.41,2.14,7.06,2.6,8.19c.91,2.23,1,3,.24,2.8ZM199,27.47a6.1,6.1,0,0,1-1.76-1.18c0-.12.17-.13.32,0l1.86,1.12a7.06,7.06,0,0,1,1.48,1,11.77,11.77,0,0,1-1.9-.93Zm-1.94.71c-1-.38-1.14-.48-.64-.5s.64-.16.64-.33.07-.23.16-.15a17,17,0,0,0,1.47.9c1.28.73,1.3.75.47.66a11.72,11.72,0,0,1-2.1-.58Zm2.38-3.44a2.59,2.59,0,0,1-1.09.63l-.86.29-2.61-1.55c-2.39-1.42-3.34-1.81-2.91-1.2a18.4,18.4,0,0,0,2.24,1.4c2,1.11,2.85,1.77,2.17,1.62-.17,0-1.31-.59-2.56-1.22-2.09-1.07-2.8-1.28-2.38-.69a9.65,9.65,0,0,0,1.73,1c2.14,1.1,2.27,1.24,1.32,1.41a2.29,2.29,0,0,1-1.63-.31c-.75-.39-.77-.43-.17-.31.36.07.63,0,.58-.12a10.85,10.85,0,0,0-2.64-1c-2.51-.75-3.5-1.42-1.38-.93.71.16,1.08.15,1.06,0s-.76-.46-2.16-.76c-1.7-.37-2-.48-1.41-.56.39-.06.73-.2.76-.31.06-.29-.2-.33-1.35-.2-1.64.17-2.43.14-2.2-.1s-.53-.37-2-.72l-2.19-.51,1.05-.24c.89-.19,1.68-.08,5.31.73,2.34.52,5.66,1.17,7.38,1.43,3.11.48,6.29,1.35,6.21,1.69a2,2,0,0,1-.27.54Zm-7.14,3.87c-2.5-.37-2.44-.7.15-.88a5.69,5.69,0,0,1,3.89.86c.65.38-1.51.39-4,0Zm2.89-1.5c-.39-.08-.35-.14.24-.3a1.58,1.58,0,0,1,1.1.07c.34.23.32.27-.24.29a5.4,5.4,0,0,1-1.1-.06Zm-.7,6c-.22-.12-.08-.14.32-.05s.57.19.39.22a1.39,1.39,0,0,1-.71-.17Zm-.64-2.63c-.22-.12-.08-.15.32-.05s.57.18.39.21a1.28,1.28,0,0,1-.71-.16Zm-3.3,1.09c-1-.44-1.11-.49-.4-.35,1,.2,2.58.89,2,.88a7.09,7.09,0,0,1-1.62-.53Zm.55-1.38c-.59-.26-.76-.4-.41-.34.65.13,1.68.62,1.52.72a3.41,3.41,0,0,1-1.11-.38Zm-.6-3a5,5,0,0,1-2.46-.38l-.9-.43,1,0c1.45,0,4.33.38,4.1.61a5.46,5.46,0,0,1-1.75.24Zm-1.06-1.41a1.57,1.57,0,0,1-1-.52c-.21-.32-.54-.42-1.48-.45a6.21,6.21,0,0,1-2-.4c-.77-.35-.77-.36-.16-.4a26.54,26.54,0,0,1,5.76,1.27c.21.33-.41.61-1.14.5Zm-3.05,1.12c-.59-.27-.76-.41-.41-.34.64.12,1.68.62,1.52.72a3.41,3.41,0,0,1-1.11-.38Zm-.95-1.26c-.8-.19-.93-.27-.54-.35a4.84,4.84,0,0,1,1.59.14c.8.18.93.27.54.35a5.13,5.13,0,0,1-1.59-.14Zm-.8-2.73c-.47-.16-.06-.11.91.11s1.36.36.86.3a9.68,9.68,0,0,1-1.77-.41Zm.15,4.27c-.18-.12-.11-.16.18-.11s.37.13.28.19a.51.51,0,0,1-.46-.08Zm-1.51-1.59c-.22-.12-.08-.14.32,0s.57.18.39.21a1.28,1.28,0,0,1-.71-.16Zm-.73-2.07a12.57,12.57,0,0,1-1.52-.35c-1.4-.41,0-.47,1.76-.07,1.52.34,1.35.65-.24.42Zm-.12.88c-.28-.12,0-.11.55,0s.82.24.51.22a3.88,3.88,0,0,1-1.06-.24Zm-4.64,18.92a3.39,3.39,0,0,1-.39-.65l-.33-.63.42.56q.6.79.3.72Zm2.35-21.94c-.41-.15-.11-.12.67.06s1.11.3.75.27a6.45,6.45,0,0,1-1.42-.33Zm.53,3.11c-.15-.1,0-.13.32-.05s.45.16.27.19a1,1,0,0,1-.59-.14Zm-3.53,17.44a8.13,8.13,0,0,1-.68-1.09l-.61-1.08.71,1c.65.95.77,1.18.58,1.14ZM171,63.16c-.07,0-2.34-4.37-2.63-5,0-.06-.17-.09-.35-.08s.11.82.68,1.93a10.34,10.34,0,0,1,.86,1.86c-.46-.1-4.33-5.5-6.38-8.91a181.27,181.27,0,0,1-12.27-23.75A130.44,130.44,0,0,0,143,13.52c-1.28-2.21-2.28-4-2.24-4.07s.77.45.63.59a5.94,5.94,0,0,0,1.15,1.79c.72.91,2,2.61,2.85,3.83a8,8,0,0,0,1.77,2.06c.2-.13-.42-1.11-2.6-4.16L143.41,12,145,13.66c.88.91,2.35,2.55,3.25,3.62,1.59,1.88,2,2.25,2.08,1.85a55.18,55.18,0,0,0-5-6c-.59-.58-1-1.08-.95-1.12a13,13,0,0,1,2.06,1.38,33.29,33.29,0,0,1,6.91,7.83,6.79,6.79,0,0,0,1.3,1.71c.28-.18-.57-1.74-1.91-3.51-2.59-3.43-2.51-3.24-.94-2.16,2.23,1.55,2.44,1.79,3.38,3.8l.92,2c0,.05.19.09.34.07s0-.59-.36-1.43c-1-2-1-2.17-.28-1.58s1.56,2.08,3.06,5.51l1.23,2.83c0,.05.17.09.32.08s-.29-1.3-1-2.89c-1.87-4.18-1.88-4.22-1-3.1a23.39,23.39,0,0,1,1.5,2.2,96.16,96.16,0,0,1,4.57,9.92A97.14,97.14,0,0,1,168,50.65c.74,5.35,1.31,7.91,2.38,10.63.73,1.88.74,1.91.6,1.88Zm6.51-43.46c-2.59-.25-3.35-.41-3-.64.13-.08,4.8.46,5.6.64,1.13.26.09.26-2.63,0Zm1.06,2.55c-.22-.12-.08-.14.33-.05s.57.19.38.22a1.25,1.25,0,0,1-.71-.17Zm-9.79.32-9.29-2.14-1.08-.89c-.59-.49-2.92-2.19-5.17-3.76C145,10,141,7.09,141.1,7c.28-.28,3.39.34,6.64,1.34a16.62,16.62,0,0,1,5.44,2.33c2.67,1.74,9,6.32,9.61,7S166,19.32,169,20.26a8.92,8.92,0,0,1,2.21.88c0,.11.31.2.56.19a22.94,22.94,0,0,1,3.47,1.07c1.66.6,3,1.1,3.07,1.1a1.21,1.21,0,0,1-.06.61l-.14.59-9.29-2.13Zm5.79-4.06c-1-.14-1.36-.26-1.25-.45s3.49,0,4,.4-.6.34-2.77.05Zm.87-1c-1-.15-2.25-.3-2.73-.34-.65-.06-.75-.11-.4-.23a9.42,9.42,0,0,1,2.57.17,6.57,6.57,0,0,0,2.37.1c.14-.13.2-.06.14.17s-.46.34-2,.13Zm-.27-1c-.35-.13,0-.11.67.06s1,.27.63.24a5.23,5.23,0,0,1-1.3-.3Zm-.32,4.65c-.21-.11,0-.12.44,0s.62.2.39.21a2.1,2.1,0,0,1-.83-.19Zm-5.71-5.61c-2.52-.5-5.06-.94-5.61-1-1.69-.13-.86-.28,1.25-.23a19.69,19.69,0,0,1,5.55,1c2,.55,3.53,1,3.49,1s-2.16-.36-4.68-.86Zm2.36,2.36c-.18-.12-.11-.16.17-.11s.38.13.28.19a.49.49,0,0,1-.45-.08Zm-.93,2.1a.81.81,0,0,1-.54-.37c0-.16.22-.2.65-.1s.65.25.53.37a.81.81,0,0,1-.64.1Zm.24-1.26c-.18-.12-.11-.16.17-.11s.38.13.28.19a.52.52,0,0,1-.45-.08Zm-10.15,2.76c-.31-.26,1,0,4.41.77l4.84,1.14-4.4-.78c-3-.51-4.55-.89-4.85-1.13Zm4.12-3.92a1.7,1.7,0,0,1-1.55-.86l-.57-.78.59.14a6.15,6.15,0,0,0,1.21.14c.56,0,.55,0-.18.25-1.12.34-.57.55,1.58.6a16,16,0,0,1,2.4.18c.66.18-2.11.44-3.48.33Zm1.48-1.88c-.27-.12-.08-.12.44,0s.75.21.51.22a3,3,0,0,1-.95-.21Zm-.39.66c-.15-.11,0-.13.32-.06s.45.16.27.19a.94.94,0,0,1-.59-.13Zm-4.08-1a12.21,12.21,0,0,1,3.47.16c.25.07-.39.09-1.4,0a10.87,10.87,0,0,1-2.07-.21Zm.37,7.31c-.28-.12-.08-.12.44,0s.75.21.51.22a2.68,2.68,0,0,1-1-.21ZM156.9,11.82l-.85-.65.92.33c.51.18,2.49.77,4.42,1.33l3.51,1-3.58-.69c-3.12-.59-3.68-.76-4.42-1.32Zm2.18,1.57c-.15-.23.16-.23,1.08,0l1.28.32h-1.08c-.75,0-1.15-.1-1.28-.32Zm-12.55-6c-.18-.12-.11-.16.17-.11s.38.13.28.19a.49.49,0,0,1-.45-.08Z" transform="translate(-4.19 -3.82)"/>
      <path class="cls-1" d="M279,52.54c-.2-.31-2.89-.86-2.95-.6s.61.39,1.48.59c1.57.36,1.69.36,1.47,0Z" transform="translate(-4.19 -3.82)"/>
      <path class="cls-1" d="M255.64,49.34c-1.09-.16-2.34-.38-2.76-.47s-.79-.08-.82.05c-.07.29,1,.56,3.6.92a4,4,0,0,0,1.91,0c0-.15-.66-.34-1.93-.53Z" transform="translate(-4.19 -3.82)"/>
      <path class="cls-1" d="M255.63,48.5c-1.21-.28-1.87-.34-1.82-.17a4.79,4.79,0,0,0,1.85.68c1,.23,1.79.3,1.82.17s-.74-.42-1.85-.68Z" transform="translate(-4.19 -3.82)"/>
      <path class="cls-1" d="M233.28,45c-2.28-.16-4.48-.07-4.33.17a2,2,0,0,0,1.15.24c1.69,0,1.75.17.1.31a3.62,3.62,0,0,0-1.62.34c-.07.29-.12.29,1.85.15s2.13-.18,1.75-.55c-.19-.19,0-.26.73-.22a2.4,2.4,0,0,0,1.24-.16c.14-.14-.14-.23-.87-.28Z" transform="translate(-4.19 -3.82)"/>
      <path class="cls-1" d="M233.7,46.86c-.21-.34-.52-.31-.6.07a.37.37,0,0,0,.27.44c.38.08.54-.17.33-.51Z" transform="translate(-4.19 -3.82)"/>
      <path class="cls-1" d="M231.39,43.86a13,13,0,0,0-2.51-.24c-3.21-.12-3.5-.11-3.41.14a27,27,0,0,0,5.91.36.15.15,0,0,0,0-.26Z" transform="translate(-4.19 -3.82)"/>
      <path class="cls-1" d="M277.14,48c-2.28-.4-2.88-.41-2.66-.05a17.56,17.56,0,0,0,5,.7c0-.14-.83-.39-2.36-.65Z" transform="translate(-4.19 -3.82)"/>
      <path class="cls-1" d="M277.3,49c-1.28-.29-2-.37-1.94-.2a5.19,5.19,0,0,0,2,.71c1.09.25,1.9.33,1.94.19s-.79-.43-2-.7Z" transform="translate(-4.19 -3.82)"/>
      <path class="cls-1" d="M253.48,108.81c-1-1.23-1.4-1.57-1.46-1.19a7.56,7.56,0,0,0,2.21,2.49c.15,0-.19-.6-.75-1.3Z" transform="translate(-4.19 -3.82)"/>
      <path class="cls-1" d="M250.08,103.24c-2.32-1.84-2.77-2.14-3-1.95a7.89,7.89,0,0,0,1.95,1.81c2.28,1.78,2.32,1.81,2.39,1.48,0-.12-.6-.73-1.38-1.34Z" transform="translate(-4.19 -3.82)"/>
      <path class="cls-1" d="M247.23,102.33a22.06,22.06,0,0,0-3.11-2.34c-.1.06-.13.14-.08.2.21.27,2.75,2.42,4.31,3.64,2.91,2.29,2,1.09-1.12-1.5Z" transform="translate(-4.19 -3.82)"/>
      <path class="cls-1" d="M244.66,93.89c-2.92-1.8-4.58-2.89-4.07-2.67,1.93.81,2.52,1,2.57.77s-9.18-4.48-9.44-4.31.49.67,3.3,1.86c1.7.72,2.81,1.3,2.61,1.37s-.3.17-.25.25,1.35.89,2.92,1.84l3.12,1.89c.15.09.29.07.32-.07s-.45-.54-1.08-.93Z" transform="translate(-4.19 -3.82)"/>
      <path class="cls-1" d="M246,91.1c-.22,0-.39,0-.37.18a.41.41,0,0,0,.26.34.39.39,0,0,0,.37-.19c.07-.13-.05-.29-.26-.33Z" transform="translate(-4.19 -3.82)"/>
      <path class="cls-1" d="M242.7,90.49a90,90,0,0,0-11.41-5.26c-1.28-.29-.09.42,2.6,1.56,2.39,1,7.51,3.51,9.36,4.56.29.16.51.17.54,0s-.45-.53-1.09-.89Z" transform="translate(-4.19 -3.82)"/>
      <path class="cls-1" d="M241.36,85.84c-2-1-2-1.07-2.09-.79a5.6,5.6,0,0,0,1.59,1.09c1.82,1,2.14,1.13,2.21.83a6,6,0,0,0-1.71-1.13Z" transform="translate(-4.19 -3.82)"/>
      <path class="cls-1" d="M241.7,87.24l-1.42-.88c-.15-.09-.3-.07-.33.06s.46.55,1.1.94l1.41.87c.16.1.3.07.33-.06s-.46-.55-1.09-.93Z" transform="translate(-4.19 -3.82)"/>
      <path class="cls-1" d="M243,85.58c-.09-.08-1-.64-2.14-1.26L238.53,83c-.15-.09-.28,0-.26.13,0,.36,4.72,3.06,4.79,2.77a.4.4,0,0,0-.11-.34Z" transform="translate(-4.19 -3.82)"/>
      <path class="cls-1" d="M239.64,77.72A107.72,107.72,0,0,0,229,72.51c-.23-.06-.31,0-.2.19a23.67,23.67,0,0,0,3.43,1.78c1.8.84,4.19,2,5.33,2.62,2,1.08,3.29,1.46,2.07.62Z" transform="translate(-4.19 -3.82)"/>
      <path class="cls-1" d="M239.52,79.12c-.25-.24-7.8-3.75-8.37-3.88-.26-.06-.34,0-.22.19a66.18,66.18,0,0,0,8.37,3.88c.22,0,.32-.08.22-.19Z" transform="translate(-4.19 -3.82)"/>
      <path class="cls-1" d="M231.94,81.56c-6.88-3.45-7.89-3.91-8.07-3.74s.08.35,5.19,2.91c2,1,3.22,1.68,2.65,1.48-4.54-1.59-5.61-1.93-5.75-1.84-.33.21.06.39,3.31,1.54,2.5.89,3.37,1.12,3.54.94s.56-.06,1.56.46c1.58.81,1.63.83,1.69.55a26.35,26.35,0,0,0-4.12-2.3Z" transform="translate(-4.19 -3.82)"/>
      <path class="cls-1" d="M231,83.18c-2.07-.75-2.82-.9-2.58-.51a31.37,31.37,0,0,0,4.24,1.62c.3.07.58,0,.61-.07a7.72,7.72,0,0,0-2.27-1Z" transform="translate(-4.19 -3.82)"/>
      <path class="cls-1" d="M227,69c-1.91-.6-2.6-.7-2.37-.33a15.46,15.46,0,0,0,4.42,1.24,5.43,5.43,0,0,0-2-.91Z" transform="translate(-4.19 -3.82)"/>
      <path class="cls-1" d="M228.9,68.66a21.55,21.55,0,0,0-4.27-2c-.31.19.33.62,2.24,1.51,1.74.8,2.53,1,2,.5Z" transform="translate(-4.19 -3.82)"/>
      <path class="cls-1" d="M225.45,71.94c-.09,0-1.9-.89-4-1.93-4-1.94-4.83-2.28-4.52-1.8a31.12,31.12,0,0,0,3.64,1.93c4.89,2.35,4.93,2.37,5,2.09s0-.27-.09-.29Z" transform="translate(-4.19 -3.82)"/>
      <path class="cls-1" d="M223.77,60.87a76.13,76.13,0,0,0-8-3.49c-.3.18-.07.31,3.37,1.89,1.87.85,3.74,1.74,4.16,2s.85.36,1,.25-.06-.34-.59-.62Z" transform="translate(-4.19 -3.82)"/>
      <path class="cls-1" d="M224.26,58.63c-.15-.14-6.52-3-7.64-3.46-.28-.11-.53-.09-.58,0a13.28,13.28,0,0,0,3.13,1.63c1.79.78,3.6,1.61,4.06,1.86.73.39,1.44.36,1-.06Z" transform="translate(-4.19 -3.82)"/>
      <path class="cls-1" d="M223.09,59c-2.12-1-7.54-3.24-8.14-3.38-.31-.07-.5,0-.42.1a73.85,73.85,0,0,0,9.52,4c.13-.07-.31-.38-1-.69Z" transform="translate(-4.19 -3.82)"/>
      <path class="cls-1" d="M217.59,67c-1.46-.7-2.8-1.36-3-1.47a.52.52,0,0,0-.56,0c-.11.11.86.71,2.23,1.37,3.65,1.78,3.85,1.87,3.91,1.62a10.06,10.06,0,0,0-2.58-1.5Z" transform="translate(-4.19 -3.82)"/>
      <path class="cls-1" d="M215.07,64.94c-.46-.18-1.07-.44-1.34-.56-.59-.27-1,.05-.48.35a15.91,15.91,0,0,0,1.47.62c1.31.49,1.63.11.35-.41Z" transform="translate(-4.19 -3.82)"/>
      <path class="cls-1" d="M211,50.39a70.22,70.22,0,0,0-8.11-3c-.34.21.1.41,3.75,1.76s4.82,1.66,4.36,1.19Z" transform="translate(-4.19 -3.82)"/>
      <path class="cls-1" d="M209.74,51.06A36.68,36.68,0,0,0,203,48.58c-.29.18-.2.22,3.82,1.79,2.4.94,3.7,1.25,2.9.69Z" transform="translate(-4.19 -3.82)"/>
      <path class="cls-1" d="M206.33,57.79c-.39-.38-6.62-2-6.69-1.79a10.32,10.32,0,0,0,3.08,1.14c3,.87,4,1,3.61.65Z" transform="translate(-4.19 -3.82)"/>
      <path class="cls-1" d="M205.24,56.37c-1.4-.63-4.59-1.83-5.25-2-.24-.05-.47,0-.5.12a3.69,3.69,0,0,0,1.51.74c.86.29,2.32.86,3.25,1.27a4.45,4.45,0,0,0,1.94.57c.16-.1-.23-.39-.95-.71Z" transform="translate(-4.19 -3.82)"/>
      <path class="cls-1" d="M205.57,55.33c-.38-.21-2.75-1.12-5-1.94-.73-.26-1.21-.33-1.25-.19s.23.4,3.5,1.58c1.15.41,2.29.86,2.58,1,.58.29.77-.14.2-.46Z" transform="translate(-4.19 -3.82)"/>
      <path class="cls-1" d="M199.86,43.6c-.22-.22-8.28-3.1-9.39-3.35-.33-.08-.64,0-.67.07a4.52,4.52,0,0,0,1.75.79c1,.31,3.13,1,4.75,1.63,2.87,1,4,1.3,3.56.86Z" transform="translate(-4.19 -3.82)"/>
      <path class="cls-1" d="M198.48,44A67,67,0,0,0,192,41.84c-.54-.12-1-.14-1,0a16.71,16.71,0,0,0,3.38,1.28c1.88.59,3.65,1.21,3.93,1.36.58.31.77-.14.21-.47Z" transform="translate(-4.19 -3.82)"/>
      <path class="cls-1" d="M196.08,44.2c-2.8-1-6.06-1.89-6-1.62a6.57,6.57,0,0,0,2.13.9c1.12.34,2.7.86,3.49,1.12s1.46.41,1.5.26-.48-.42-1.15-.66Z" transform="translate(-4.19 -3.82)"/>
      <path class="cls-1" d="M193.16,46.18c-2.35-.39-2.87-.4-2.65,0s5,.94,5,.68-.81-.38-2.37-.63Z" transform="translate(-4.19 -3.82)"/>
      <path class="cls-1" d="M194.78,45.63c-1.06-.48-4.42-1.22-4.47-1s4.66,1.65,5,1.46c.13-.08-.08-.28-.49-.47Z" transform="translate(-4.19 -3.82)"/>
      <path class="cls-1" d="M195.33,44.75c-.19-.31-5.47-1.43-5.53-1.17s1.06.49,2.79.89a26.5,26.5,0,0,0,2.85.57.52.52,0,0,0-.11-.29Z" transform="translate(-4.19 -3.82)"/>
      <path class="cls-1" d="M192.41,46.92A7,7,0,0,0,190,46.6a.21.21,0,0,0,0,.33,17.56,17.56,0,0,0,4.61.71,6.33,6.33,0,0,0-2.18-.72Z" transform="translate(-4.19 -3.82)"/>
      <path class="cls-1" d="M184.3,38.71c-1.1-.42-1.41-.41-1.24.08s2.17.85,2.24.54c0-.11-.43-.4-1-.62Z" transform="translate(-4.19 -3.82)"/>
      <path class="cls-1" d="M235.34,102.08c-.34-.38-.69-.62-.8-.54s.79,1.54,1.12,1.62.25-.44-.32-1.08Z" transform="translate(-4.19 -3.82)"/>
      <path class="cls-1" d="M231.14,97.06C230,95.3,229,94,229,94.2s1,2,3.2,5.27c.43.63.84,1,.93,1a16.78,16.78,0,0,0-1.94-3.36Z" transform="translate(-4.19 -3.82)"/>
      <path class="cls-1" d="M232.32,96.78c-.41-.63-1.31-2.23-2-3.53S229.05,91,229,91.14c-.25.42,3.32,7,3.86,7.14s.24-.38-.5-1.5Z" transform="translate(-4.19 -3.82)"/>
      <path class="cls-1" d="M228.43,100.92c-.94-1.12-1.74-1.65-1.36-.9s2,2.35,2.14,2.18-.27-.67-.78-1.28Z" transform="translate(-4.19 -3.82)"/>
      <path class="cls-1" d="M227.47,102c-1-1.57-1.53-1.51-.57.06a6,6,0,0,0,1,1.35c.39.09.26-.35-.42-1.41Z" transform="translate(-4.19 -3.82)"/>
      <path class="cls-1" d="M226.09,89.31a23.22,23.22,0,0,0-2.19-4.63c-.15,0-.1.46.13,1s1.05,2.51,1.86,4.51,1.56,3.73,1.67,3.84c.57.58.26-.42-1.47-4.68Z" transform="translate(-4.19 -3.82)"/>
      <path class="cls-1" d="M223.83,96.59a21.43,21.43,0,0,1-1.77-3.2c-.41-1.09-.78-1.53-.89-1s1.76,4,2.66,5.2c1.44,1.89,1.43,1.25,0-1Z" transform="translate(-4.19 -3.82)"/>
      <path class="cls-1" d="M224.52,94.88c-.39-.81-.77-1.38-.85-1.25a7.2,7.2,0,0,0,1.27,3.09c.38.08.27-.41-.42-1.84Z" transform="translate(-4.19 -3.82)"/>
      <path class="cls-1" d="M225,91.24c-.22-.5-.9-2.48-1.5-4.36-1-3-1.42-4-1.56-3.4-.05.19,2.37,7.54,2.76,8.43.16.36.39.57.5.46s0-.63-.2-1.13Z" transform="translate(-4.19 -3.82)"/>
      <path class="cls-1" d="M236.18,30.59a10.5,10.5,0,0,0-3.31,0c-.06.27.29.34,2,.39a3,3,0,0,0,1.45-.16.18.18,0,0,0-.12-.24Z" transform="translate(-4.19 -3.82)"/>
      <path class="cls-1" d="M235.35,32.06a13.62,13.62,0,0,0-3.73-.16c-.4.26.24.4,1.85.42,1.91,0,2.14,0,1.88-.26Z" transform="translate(-4.19 -3.82)"/>
      <path class="cls-1" d="M225.69,33.13a18.11,18.11,0,0,0-3-.37c-1.59-.12-3-.24-3.1-.26s-.15.07-.05.23a8.65,8.65,0,0,0,3,.53c2.66.24,3.35.21,3.14-.13Z" transform="translate(-4.19 -3.82)"/>
      <path class="cls-1" d="M224.89,32.07c-.25,0-1.45-.13-2.68-.32a7.21,7.21,0,0,0-2.42-.15c-.2.2,4.77,1.13,5.23,1s.3-.53-.13-.51Z" transform="translate(-4.19 -3.82)"/>
      <path class="cls-1" d="M214.47,88.83c-1.17-2.1-2.29-5.38-3.68-10.78-1.29-5-1.55-5.81-1.85-5.63s2.07,8.85,2.91,11.46c1.17,3.6,3.13,7.41,3.3,6.4a7.27,7.27,0,0,0-.68-1.45Z" transform="translate(-4.19 -3.82)"/>
      <path class="cls-1" d="M209.23,90.74c-.32-.62-.67-1.07-.78-1s.75,2.36,1.08,2.44.29-.28-.3-1.44Z" transform="translate(-4.19 -3.82)"/>
      <path class="cls-1" d="M209.76,81.6c-.29-.91-.63-1.63-.75-1.59s.3,2.16.83,3.33.48,0-.08-1.74Z" transform="translate(-4.19 -3.82)"/>
      <path class="cls-1" d="M207.2,84.45c-.52-1-1.12-2.22-1.31-2.72-.37-.93-.82-1.33-.73-.64,0,.21,0,.38,0,.37s-1.91-5.4-2.43-7.36c-.27-1-.57-1.75-.67-1.65-.55.56,4.14,14.47,4.94,14.66.3.06.27,0-.78-2.67-.94-2.36-1.07-2.74-.92-2.7a4.62,4.62,0,0,1,.58,1.1c.76,1.74,1.79,3.46,2.06,3.44s-.18-.84-.7-1.83Z" transform="translate(-4.19 -3.82)"/>
      <path class="cls-1" d="M207.89,74.92c-.25-.78-.58-1.43-.76-1.47s-.11.77.6,2.63c.47,1.22.6.24.16-1.16Z" transform="translate(-4.19 -3.82)"/>
      <path class="cls-1" d="M204.18,74.72a12.58,12.58,0,0,0-.87-2.29c-.47-.46-.5.06-.07,1.17.25.65.63,1.76.85,2.45a4.63,4.63,0,0,0,.51,1.3c.3.07.17-.78-.42-2.63Z" transform="translate(-4.19 -3.82)"/>
      <path class="cls-1" d="M201.78,66.52c-.29-1-.58-1.63-.67-1.5a8.1,8.1,0,0,0,.88,3.52c.37.08.34-.2-.21-2Z" transform="translate(-4.19 -3.82)"/>
      <path class="cls-1" d="M200.8,68.26a29.93,29.93,0,0,0-1.12-3.21c-.46-.76-.63-.23-.22.71a33.81,33.81,0,0,1,1,3.23,15.45,15.45,0,0,0,.84,2.51c.45.44.28-.59-.53-3.24Z" transform="translate(-4.19 -3.82)"/>
      <path class="cls-1" d="M226.86,48.06c-.41,0-.69,0-.65.18.12.35.66.42,1,.14s.19-.26-.4-.32Z" transform="translate(-4.19 -3.82)"/>
      <path class="cls-1" d="M224,46.92l-1.37-.3c-1.79-.35-2,0-.28.45a3.3,3.3,0,0,0,1.64.12c.12-.12.12-.23,0-.27Z" transform="translate(-4.19 -3.82)"/>
      <path class="cls-1" d="M222.5,45.37a3.09,3.09,0,0,0-1.61-.1c-.31.32-.19.37,1.44.62,1.91.28,2-.1.17-.52Z" transform="translate(-4.19 -3.82)"/>
      <path class="cls-1" d="M209.77,26.9c-2.78-.48-3.17-.49-3-.09.05.17-.52.13-1.58-.12s-1.69-.28-1.72-.14,1.21.59,4.41,1.36c1.13.28,1.46-.07.5-.52-.57-.27-.51-.29.42-.09,1.68.35,3.35.46,3.4.23a7.32,7.32,0,0,0-2.39-.63Z" transform="translate(-4.19 -3.82)"/>
      <path class="cls-1" d="M208,29.5c-.54.09-1.88.26-3,.38s-1.93.3-1.8.42c.44.45,5.59-.2,5.71-.72,0-.16-.31-.19-.91-.08Z" transform="translate(-4.19 -3.82)"/>
      <path class="cls-1" d="M201.23,89.44a16.66,16.66,0,0,1-1.07-2.17c-.46-1-.95-1.88-1.08-1.84-.46.16,1.52,4.33,2,4.28.25,0,.29-.1.12-.27Z" transform="translate(-4.19 -3.82)"/>
      <path class="cls-1" d="M198.15,86.87c-.52-1-1.05-2-1.19-2.36s-.34-.55-.45-.48c-.3.2,1.88,4.83,2.33,4.94s.22-.39-.69-2.1Z" transform="translate(-4.19 -3.82)"/>
      <path class="cls-1" d="M195.14,83.77a7.43,7.43,0,0,0-1.5-2.17c-.29.18,2.24,4.76,2.56,4.65s.41.1-1.06-2.48Z" transform="translate(-4.19 -3.82)"/>
      <path class="cls-1" d="M195.17,80.94c-.26-.54-.54-.88-.64-.77s0,.6.28,1.13.55.88.65.77,0-.6-.29-1.13Z" transform="translate(-4.19 -3.82)"/>
      <path class="cls-1" d="M196.69,71.18c-.15-.45-.65-2-1.1-3.49s-.9-2.56-1-2.42c-.2.33,1.75,7,2.07,7s.33-.2,0-1.11Z" transform="translate(-4.19 -3.82)"/>
      <path class="cls-1" d="M194.49,69.18a23,23,0,0,0-1.22-3.85,17.52,17.52,0,0,0,.72,3.83,21.76,21.76,0,0,0,1.2,4c.37.08.34-.07-.7-4Z" transform="translate(-4.19 -3.82)"/>
      <path class="cls-1" d="M192.32,73.16c-.52-1.86-1-2.76-1.09-2.22a20.19,20.19,0,0,0,1.42,4.66c.34.08.31-.15-.33-2.44Z" transform="translate(-4.19 -3.82)"/>
      <path class="cls-1" d="M191,73c-1.17-3.26-1.71-4.39-1.84-3.84,0,.15,2.69,7.82,2.89,8.14s.19.13.25-.11A27.45,27.45,0,0,0,191,73Z" transform="translate(-4.19 -3.82)"/>
      <path class="cls-1" d="M188.62,74.05c-.43-1.47-1.15-4.19-1.61-6.09-1.08-4.46-2.74-10-3-10-.13,0-.22,0-.23,0s1,3.85,1.65,5.76c.25.81.59,2.13.74,2.91a91.57,91.57,0,0,0,3,10.39c.36.08.31-.23-.49-3Z" transform="translate(-4.19 -3.82)"/>
      <path class="cls-1" d="M191.68,56.33c-.53-2.11-.54-2.13-.79-2s.69,4.12,1,4,.27-.12.27-.15-.21-.87-.47-1.9Z" transform="translate(-4.19 -3.82)"/>
      <path class="cls-1" d="M189.38,61.78a13.88,13.88,0,0,0-.74-3.23c-.13-.08-.26-.1-.28,0-.06.26.93,6,1.07,6.25.42.7.41-.14-.05-3Z" transform="translate(-4.19 -3.82)"/>
      <path class="cls-1" d="M190.61,55.89c-.53-1.77-.85-2.39-1-1.91a15.22,15.22,0,0,0,1.12,3.91c.37.36.3-.48-.16-2Z" transform="translate(-4.19 -3.82)"/>
      <path class="cls-1" d="M187.86,63.17c-.85-6.14-2.39-13.58-2.7-13.07a17.81,17.81,0,0,0,.56,3.49,97.2,97.2,0,0,1,1.66,10.29c-.08.33.26.69.46.48a2.44,2.44,0,0,0,0-1.19Z" transform="translate(-4.19 -3.82)"/>
      <path class="cls-1" d="M185.12,56c-.68-3.55-2.33-10-2.57-10.06a14.62,14.62,0,0,0,.62,3.57c.48,2,1.09,4.76,1.37,6.17a11.6,11.6,0,0,0,.7,2.59c.3.06.28-.19-.12-2.27Z" transform="translate(-4.19 -3.82)"/>
      <path class="cls-1" d="M182.27,50.44c-2-5.81-2.76-8-3-8-.36-.08-.28.21,1.22,4.52.75,2.16,1.38,4,1.39,4.15s.16.21.31.2.22-.28,0-.84Z" transform="translate(-4.19 -3.82)"/>
      <path class="cls-1" d="M195.63,36.34c-2.84-1.19-6.22-2.5-6.32-2.44-.36.22.51.7,3,1.64,1.51.57,3,1.17,3.37,1.33s.64.17.68,0-.29-.39-.69-.56Z" transform="translate(-4.19 -3.82)"/>
      <path class="cls-1" d="M178.29,30.64c-2.86-.89-5.77-1.52-6-1.29s.44.35,1.53.6,2.73.7,4,1.08c1.47.44,2.29.6,2.33.44a4.61,4.61,0,0,0-1.85-.83Z" transform="translate(-4.19 -3.82)"/>
      <path class="cls-1" d="M179.43,29.69c-.31-.31-7.23-1.59-7.29-1.35s5.1,1.44,6.51,1.5c.54,0,.89,0,.78-.15Z" transform="translate(-4.19 -3.82)"/>
      <path class="cls-1" d="M174.5,27.61c-3.57-.82-5.24-1-4.63-.53a62.81,62.81,0,0,0,8.65,1.68,19.73,19.73,0,0,0-4-1.15Z" transform="translate(-4.19 -3.82)"/>
      <path class="cls-1" d="M188.69,79.67c-.83-1.83-1.36-2.53-1.24-1.63.06.4,0,.35-.41-.23-.9-1.34-.6-.2.47,1.81s1.47,2.4,1.84,2a5.61,5.61,0,0,0-.66-2Z" transform="translate(-4.19 -3.82)"/>
      <path class="cls-1" d="M186.62,74.71c-.31-.94-.62-2-.69-2.44-.12-.73-.49-1-.61-.54a21.58,21.58,0,0,0,1.58,5c.37.08.32-.22-.28-2.06Z" transform="translate(-4.19 -3.82)"/>
      <path class="cls-1" d="M185,74.63c-.71-1.46-1.36-2.52-1.45-2.37-.24.38,2,5.2,2.51,5.31s.21-.36-1.06-2.94Z" transform="translate(-4.19 -3.82)"/>
      <path class="cls-1" d="M181.76,72.74c-.61-1.09-1.19-1.91-1.29-1.81-.24.26,1.79,3.86,2.14,3.82.14,0-.25-.93-.85-2Z" transform="translate(-4.19 -3.82)"/>
      <path class="cls-1" d="M179.5,66c-.37-1-.71-2.07-.78-2.29s-.22-.35-.33-.28a4.4,4.4,0,0,0,.37,2c.77,2.37,1,2.93,1.23,2.7A5.85,5.85,0,0,0,179.5,66Z" transform="translate(-4.19 -3.82)"/>
      <path class="cls-1" d="M178.12,66.91a7.7,7.7,0,0,0-1.52-2.17c-.22.13,2.23,4.7,2.56,4.77s.23-.39-1-2.6Z" transform="translate(-4.19 -3.82)"/>
      <path class="cls-1" d="M176.85,61.89c-.5-2.48-.74-3.15-.89-2.5A20,20,0,0,0,177,64.55c.33.07.31-.16-.19-2.66Z" transform="translate(-4.19 -3.82)"/>
      <path class="cls-1" d="M175.18,60a20.52,20.52,0,0,0-1-3.78c-.28-.17-.27-.12.51,4.17.58,3.14.75,3.73,1,3.42a22.8,22.8,0,0,0-.58-3.81Z" transform="translate(-4.19 -3.82)"/>
      <path class="cls-1" d="M174.72,45.09c-.24-.8-.51-1.35-.6-1.21a6.34,6.34,0,0,0,.76,3c.33.08.31-.23-.16-1.78Z" transform="translate(-4.19 -3.82)"/>
      <path class="cls-1" d="M173.33,48.07a9,9,0,0,0-.86-2.75c-.34-.08-.35-.15.35,2.92a7.86,7.86,0,0,0,.88,2.7c.14,0,.24-.1.24-.13s-.28-1.27-.61-2.74Z" transform="translate(-4.19 -3.82)"/>
      <path class="cls-1" d="M174.37,38.94c-.49-1.63-1-1.68-.54,0a4.08,4.08,0,0,0,.57,1.4c.31.07.31-.23,0-1.35Z" transform="translate(-4.19 -3.82)"/>
      <path class="cls-1" d="M172,45.33c-.28-1.71-.52-3.22-.54-3.36s-.14-.21-.27-.13.71,7.3,1,7.38.31-.86-.18-3.89Z" transform="translate(-4.19 -3.82)"/>
      <path class="cls-1" d="M170.86,48.94c-.44-2.57-.49-2.77-.76-2.6a26.73,26.73,0,0,0,.72,5.18c.08.13.19.15.29,0a9.14,9.14,0,0,0-.25-2.62Z" transform="translate(-4.19 -3.82)"/>
      <path class="cls-1" d="M172.87,41.26c-.27-.79-.67-1.24-.76-.85a6.7,6.7,0,0,0,.8,2.27c.29.07.28-.5,0-1.42Z" transform="translate(-4.19 -3.82)"/>
      <path class="cls-1" d="M172.29,35.81c-.68-1-.95-.55-.29.52.4.64.61.81.67.55a1.84,1.84,0,0,0-.38-1.07Z" transform="translate(-4.19 -3.82)"/>
      <path class="cls-1" d="M169.21,47.19c-.48-2.4-.93-3.83-1.25-3.9-.14,0-.07.57.15,1.34a29.15,29.15,0,0,1,.69,3.15,4.8,4.8,0,0,0,.48,1.79c.33.07.32-.45-.07-2.38Z" transform="translate(-4.19 -3.82)"/>
      <path class="cls-1" d="M169.68,40.63a4.89,4.89,0,0,0-.71-1.84c-.29-.07-.3-.14.25,2.25.41,1.76.72,2.37.85,1.69a10.91,10.91,0,0,0-.39-2.1Z" transform="translate(-4.19 -3.82)"/>
      <path class="cls-1" d="M168.85,41.8c-.54-2.22-.87-2.94-1-2.28s1.12,5,1.36,4.93.27-.11.27-.15-.28-1.15-.61-2.5Z" transform="translate(-4.19 -3.82)"/>
      <path class="cls-1" d="M167.8,56.46a79.87,79.87,0,0,1-3.11-8,3.15,3.15,0,0,0-.62-1.32c-.37-.08.38,2.53,1.63,5.68a25.19,25.19,0,0,1,1.07,2.91,79.55,79.55,0,0,1-3.56-7.16c-1.3-2.87-1.93-4-2.18-3.82s1.23,3.1,4,8.77c1.41,2.84,1.94,3.7,2.35,3.77.62.11.8-.26.39-.81Z" transform="translate(-4.19 -3.82)"/>
      <path class="cls-1" d="M164,45.21l-.63-1.5c-.15-.35-.38-.6-.49-.53A9.11,9.11,0,0,0,164,46.61c.33.08.3-.55-.06-1.4Z" transform="translate(-4.19 -3.82)"/>
      <path class="cls-1" d="M159.51,38.73c-1.13-2.32-2.13-4.43-2.24-4.71s-.34-.49-.49-.48,4.23,9.89,4.53,10,0-1.1-1.8-4.77Z" transform="translate(-4.19 -3.82)"/>
      <path class="cls-1" d="M161,36.78a13.57,13.57,0,0,0-1.34-2.87c-.13,0-.2.1-.14.29.36,1.13,2.24,5.92,2.33,5.94.35.08.11-.87-.85-3.36Z" transform="translate(-4.19 -3.82)"/>
      <path class="cls-1" d="M161.77,32.16c-.47-1.13-.91-1.92-1-1.78a12.48,12.48,0,0,0,1.56,4.14c.36.09.24-.41-.56-2.36Z" transform="translate(-4.19 -3.82)"/>
      <path class="cls-1" d="M159.08,28.82c-1.27-3-1.41-3.24-1.65-3.09s2.18,5.93,2.48,6,.29-.28-.83-2.91Z" transform="translate(-4.19 -3.82)"/>
      <path class="cls-1" d="M158.1,32.56c-.21-.05-.38,0-.36.19a.4.4,0,0,0,.26.33.37.37,0,0,0,.36-.19c.08-.13,0-.28-.26-.33Z" transform="translate(-4.19 -3.82)"/>
      <path class="cls-1" d="M155.69,27.72a6.92,6.92,0,0,0-1.39-2.1c-.21.07.29,1.18,1.74,3.85.37.68.66,1,.71.79a9.26,9.26,0,0,0-1.06-2.54Z" transform="translate(-4.19 -3.82)"/>
      <path class="cls-1" d="M153.89,28.54a8.37,8.37,0,0,0-1.45-2.36c-.13,0,0,.46.21,1s.79,1.62,1.2,2.49c.72,1.51,1.11,2,1.21,1.52a18.28,18.28,0,0,0-1.17-2.62Z" transform="translate(-4.19 -3.82)"/>
      <path class="cls-1" d="M151.84,22.57c-.7-1.1-1.34-1.92-1.44-1.82a7.22,7.22,0,0,0,1.18,2.34c.75,1.19,1.39,2,1.44,1.81a8.65,8.65,0,0,0-1.18-2.33Z" transform="translate(-4.19 -3.82)"/>
      <path class="cls-1" d="M152.19,21c-.37-.71-.76-1.22-.87-1.14s.93,2.65,1.26,2.73.28-.31-.39-1.59Z" transform="translate(-4.19 -3.82)"/>
      <path class="cls-1" d="M149.86,22.62a12.27,12.27,0,0,0-2-2.72c-.21.13,3.17,5.81,3.5,5.88s.16-.48-1.51-3.16Z" transform="translate(-4.19 -3.82)"/>
      <path class="cls-1" d="M155.58,14.18c-1.19-.43-1.75-.47-1.52-.1a5.34,5.34,0,0,0,1.4.61c1.73.59,1.84.12.12-.51Z" transform="translate(-4.19 -3.82)"/>
      <path class="cls-1" d="M156.52,13.66a19.31,19.31,0,0,0-4.63-1.2c0,.2,1,.61,3.59,1.41,1.09.34,1.75.21,1-.21Z" transform="translate(-4.19 -3.82)"/>
      <path class="cls-1" d="M153.15,11.67c-2.29-.76-4.42-1.21-4.21-.89s5.64,1.91,5.7,1.64-.64-.47-1.49-.75Z" transform="translate(-4.19 -3.82)"/>
      <path class="cls-1" d="M153.25,10.9A90.16,90.16,0,0,0,144,8.24c-.36.23.15.42,4.33,1.62a48,48,0,0,1,4.71,1.5c.37.24.58-.14.26-.46Z" transform="translate(-4.19 -3.82)"/>
    </g>
  </g>
</svg>
