<svg id="Capa_1" data-name="Capa 1" xmlns="http://www.w3.org/2000/svg" viewBox="0 0 151.16 44">
  <defs>
    <style>
      .cls-1 {
        fill: #7d8472;
      }
    </style>
  </defs>
  <title>te</title>
  <g>
    <path class="cls-1" d="M51.16,39.74c-4.54,0-10.17.23-15.26.7V29.25c-3.06,7.28-7.52,11.58-15.74,11.58a11.8,11.8,0,0,1-8.68-3.37C9,34.8,8.73,31.67,8.81,27.13l.24-16.28c.08-4.93.08-6.42-7.2-6.89V2.63c8.53-.08,15-.39,19-.7V29.4c0,5,.78,7.91,4.3,7.91,4.47,0,10.57-5.79,10.57-17.93V8.5c0-3.6-2.35-4.22-7-4.54V2.63c8.46-.08,15-.39,18.79-.7V32.14c0,4.15-.16,5.72,6.73,6.34v1.33C53.35,39.81,52.1,39.74,51.16,39.74Z"/>
    <path class="cls-1" d="M87.4,14.61c-3.83,0-5.79-2.51-5.79-5.56,0-.94.71-2,.71-2.5,0-.32-.71-.4-.94-.4a4.53,4.53,0,0,0-2,.94c-3.29,2.27-4.23,7.67-4.23,16.05v9c0,4.15-.08,5.72,7,6.34v1.33H56.56V38.48c6.89-.62,6.81-2.11,6.81-6.34V8.5c0-3.6-2.42-4.22-7-4.54V2.63c8.06,0,14.71-.39,18.63-.7v8.29c2.19-5.63,6-8.53,11.11-8.53,3.84,0,7.44,2.59,7.44,6.89A6.21,6.21,0,0,1,87.4,14.61Z"/>
    <path class="cls-1" d="M107.4,20.09c0,.23-.08,1.09-.08,1.33,0,11,1.33,17.61,10,17.61,7.28,0,12.45-3.91,13.7-11.74h1.57c-.94,8.61-7.36,13.46-16.76,13.46-11.74,0-21.21-8.06-21.21-19.72A19.79,19.79,0,0,1,114.76,1.69c10.41,0,18.08,7.44,18.08,16.83v1.57Zm7.28-16.68c-5.4,0-6.89,5.09-7.2,15h7.75c5,0,5.71.15,5.71-5.17C120.94,6.7,118.91,3.41,114.68,3.41Z"/>
  </g>
  <circle class="cls-1" cx="143.94" cy="35.01" r="5.82"/>
</svg>
